<svg xmlns="http://www.w3.org/2000/svg" width="1080" height="1080"><defs><radialGradient href="#fondo-a" id="fondo-c" cx="540" cy="540" r="540" fx="540" fy="540" gradientUnits="userSpaceOnUse"/><linearGradient id="fondo-a"><stop offset="0" stop-color="#403c3c"/><stop offset="1" stop-color="#020202"/></linearGradient><clipPath id="clip" clipPathUnits="userSpaceOnUse"><path stroke-width=".3" d="M0 0h1080v1080H0Z"/></clipPath></defs><path fill="url(#fondo-c)" d="M0 0h1080v1080H0Z"/><g clip-path="url(#clip)"><path id="fondo-d" fill="#fff845" fill-rule="evenodd" stroke-width="1.7" d="M285-21c-1 0-2 1 0 3 0 1-3-1-1 2l-2-3c-2-1-1 3-4-1l2 2h-3l1 2v1l-2-2c0 3-1 3-3 3-2-1 0 0-1-2h-2c1 3-5-3-4 0h2v2l-1-2h-2c3 3-1 3-3 3h-1c-1 1-3 3-6 3l-1-3c-2-1-1 2 1 3-1 1-3-2-4-3 0 2 2 2 3 3-2 1-1 4-5 2 2 3 0 2 0 4l-2-2c0 2-1 2-2 3-2-2 0-2 0-2-2-2-3 0-2 3l-3-3v-3c-2 1-3 3-3 7l-3-4c-1 1-3 3-6 1 1 4-1 2-2 2l2 2c-4-2-3 5-6 1-2 2-7 1-6 4-3-2-2 2-6-1 2 3-1 1 1 4-2 0-2-1-3-2-4 2-7 6-12 5 0 2 1 3 2 3-5 0-9 1-10 4 0 2-3-1-4 0l1 2c-1 0-3-1-3 2l-3-2c-2 4-6 5-10 6l1 1c-7 2-11 7-18 10 2 3-4 3-6 5-2 0-1 3-4 1l1 3c-3-3-1 2-5 0 0 5-6 3-7 8l-2-1c-2 5-9 4-10 10-4-1-2 4-6 3 1 3-3 1-2 4-4 0-6 3-8 6-7 4-11 11-17 15v2l-1-1-7 9-2-1c0 1 3 3 1 2l-1-1v2c-24 18-39 45-60 67v2c-4 1-4 8-9 8 0 1 2 4 0 2 0 1 0 3-2 2v2c-1 1-2 1-2 4-7 2-8 12-17 12l1 2c-2-1-3 1-2 3l-2-2c2 4 0 2-1 2 0 3-2 4-4 6l-2-3s2 4 0 3l1 1v2l-2-2v5c-2-2 0-2-1-4l-2 9-2-1c-1-3 0 1 2 1v5c-2-1-2 0-3-2-1 0 1 3-2 1 1 2 2 1 2 1 1 3-1 2-1 5l-1-1-1-1c2 2 0 2 1 4-5-1-1 10-7 7 3 4 1 5 0 6-2-3 1-2 0-4l-2-1-1-6c4 5 3-2 2-3-3 0-4 3-3 8l-1-2c-1 1-2 3 1 7l-3-2 1 9c-3 2-5 4-3 10-2 0-3 4-1 8-5 0 0 15-9 12 5 4 0 5 4 9-1 0 3 6-1 3 1 8-2 10-8 9l3 5-3-1v2l2 5c1 1 0-1 1-1 0 5-3 7-8 5 2 3 2 5 0 5 4 8 4 13 4 17l-3-2c2 3 0 3 1 5l-2-1c-1 2-2 5-1 10-1 2-3 6 0 13-2 1-1 8 0 11 0 5 1 8 3 14l3 2v3c2 0 0-2 2-1-1-3 3 0 1-3l3 1 2-3 2 8c3-4 7-9 6-18h2l-2-2v-2c4 4 1-4-1-7l3 4c0-1 2 0 3 2s-1 1 1 4c1 1-2-4 1-2l-2-2 1-1 1 2c0-3 0-5-2-9l2 2c-1 1 3 7 0 7l2 3v1c-2-3-2 0-2 1l-2-2 3 9-3-6s-1 2 1 4c-2 0-1 4 0 8 2 0 0-4 0-6 3 5 2 8-1 6 1 3 1 6-1 5 1 9-4 10-3 17 2 2 2 0 5 2 0-1 1-2 4 0l-2-2c4 2 2-1 4 0l1 3c3 1 2-1 3-2l2 3c3 1 1-3 1-5 3 2 3 5 3 7l2 1-1-1v-3l2 2c0-2 1-3 2-3l-2-3-1-3 5 5c-1 1 0 6 3 10-1 2-2 5-5 5 3 3 1 3 0 3-2-2 1 0 0-2-2-1 0 3 0 4-2 0-2-2-2-2 2 3 0 5-2 5 1 4-1 3-1 5 2 3 2 0 2 0 1 3 1 8-3 6 2 5-6 4 0 12-2 0 1 4-1 4l-2-4c0 5 2 11 6 17 2 1 4 1 6 4 3 1 4-1 9 4l-2-6v1c-2-1-1-1-1-2l2 1 3 3v-2c3 2 3-2 3-5 5 3 2-4 1-8l1 1c3 5 2 6 3 10l3 1c-2-7 1-6 1-11l1 1c0 1 0 4 2 7h1v-2l-3-3c2 0 3-3 0-6l1 1 2 2-2-4 3 2-2-4 1 1c2 1-1-2-1-3l3 2 1 3c2 1 0-2-2-4 1-1 2-2-1-6h1l-1-1c4 2 1-4 3-3l2 2c-1-1 0-2 1 0l2 5c-2-1-2 0-1 2l-4-4c0 2 2 3 4 5l-4-2v2l4 5v-2l3 2c-1-3 0-3 1-4 1 1 1 3-1 1l1 1v1c2 1 1-1 1-2l5 5-1-3 3 2-1-2 2 2 2-2c2 1 1 1 2 3 1 1 0-2 2 0l-2-2c4 0 3-6 6-6l-2-2-1-3c7 6 2-4 4-4 5 7 2 6 3 10 2 1 0-3 2 0l-1-3 2 2v1l2 4c3 2-2-6 1-3l-4-8c2 0 3 2 3 3 3 2 2 0 2 0l-2-4s0 2-1 0c-1-1 0-2 1-1l-2-5 3 2 3 3c-3-4-1-4-3-8h4c-3-4-2-6-3-9 2 1 1 3 2 4 1-1-2-8-4-12-2 1 2 7 2 8l-2-2 2 3c-4-2 1 10-4 6-3-6-1-7 1-8-4-7-1-8 0-10l5 9-1-4c6 4 0-4 5 0v-5l-2-2v-2c2 1 2 2 1 3 2 1 1-2 0-4 1 0 0-3 2-1 1 0-1-5 1-4l5 7c1-1-2-4 0-5l2 1c0-2-1 0-2-2l-1 2-2-2-1-1h2l-1-2 1-1c2 1 2 2 1 2l-1-1 3 4c-3-8-1-10-2-14l2 1-1-6 3 6c-2-2-2-1 0 0l2-6c3 2 0 3 3 6v-2c3 1 1-8 3-11 1 1 0 3 2 4-2-3-2-4-1-5h-2l-1-1c-1-2 3 0 1-3l2 1c-1-2 1-1 1-3l2 2h1l-1-2c3-1 4-4 6-7l2 3 1-1-2-4c2 1 2 0 1-2 1 0 1 2 3 2l-3-3c3 2 1-1 2-2l2 2-2-2c0-2 5 0 7 3 0-3-3-2-4-5l2 1c0-2 2-1 0-4 0-1 1-2 3 1l-1-3c-2-2 1 2-1 0-2-3 2-3 1-6 1 2 3 3 2 4 3 2-1-4 0-5 3 2 1-1 1-2 3 1 3 0 3-2 2 2 0 2 1 3l3 4-2-8 2 1c2 2-1 1 2 3v3c2 1 0-3 3 0l-1-4c3 4 1 0 4 1v-5c-2-2-3-3-3-1-2-3 1-2 1-2 2 1 2 2 2 3l4 3c-4-4 0-2-2-5l-2-1c1 0 0-2 2-1v2l2 1c1 1-2-3 0-1l-3-4 2 2-2-3 1-1 4 5-2-3c-1-3 2 1 1-2l3 2c-1-2 1-1 2-1-2-4-1-3 0-4l3 3c-2-3 0-3 1-4l-3-3c1-1 3 3 4 3l-1-2c6 4 1-5 5-3l-1-4 2 4v-2l-2-2v-1h2c2 2 0 2 1 3 2 1 1-1 0-3 2 0 2 1 4 3v-3l2 2c-2-3-2-5 1-2-2-4 0-3 1-3-1-2 0 0-2-1 0-2 1-1 1-1l3 3 4 2v1c2 1 3-1 3-1l-6-3c-2-4 3 2 4 0l-6-5 5 3-4-6c3 3 3 2 5 3 1 1 1 3 3 3l-3-3c1-1 3 1 0-2l4 2c1 1-2 1 1 3-1-2 0-8 3-3 1 0 0-2 1-1-2-4 2-2 0-7 2 2 2 0 3 3l-1-4c1-1 4 0 3-4 2 3 2 1 1-1l3 2-3-3 3 1c1 0-1-3 2-1l-2-2h-3l4-2 1 1c0 1-2 0 0 3 2 0 0-3 3-2v-1l-2-2c-1-2 1-1 1-3l3 3-2-3 3 2-2-2c6 3 5-4 9-3l2 3c1 0-1-4 3-1l-2-2v-3l1 3 2-1-2-1c-1-2 1-1 1-2l1 2v-2l2 2 4-4-1-1v-2l2 3c2 0 1-3 1-4h2l-2-2 4 1-3-4h-1c-1-1 0-2 1-2l2 4 1-2c-2-1-1 1-1 1-1-1 0-2-2-3l1 1c-1-3 0-3 1-3l3 5c0 1-1 1 1 3l2 1-2-4c0-1 2 1 1-2 3 3 3 1 3-1 2 2 3 2 2-1l2 2c2 1 0-3 2-2l-2-3c-1-1 2 2 1-1l2 2c1 0-2-2 0-1l2 2c0-2 3 0 1-3l3 2c-2-3 0-1 0-1 1-1-1-5 2-3-2-3 0-2 1-3l2 2c-2-3 1-1-1-4-1-2-2-2-2-1v-2c-2-3-1 0-2-1l-1-2s3 2 1-1c2 1 3 1 3 3 2 1 1-2 3 0l-1-3 3 9 3 1c-1-1-2-3 0-2l-2-2c0-2 1 0 3 1l1 1c-1-3 2-1 0-4-2-1 0 3-2 2-1-3 1-4 3-1v-3h-2c-2-1 1-1 1-1l-1-3c0-1 2 1 1 2 2 0-1-3-2-3v2l-2-3c-1-1 2 1 2-1l4 5c-2-2-1-1-1-3l3 3-2-4c3 3 1-2 4 1-2 1-1 5-5 4 3 3 0 3 3 6l2 1c-2-3 1-2 2-1l-3-4c0-1-1-2 1-1 1 1-2 0 1 2 2 2-1-1 0 2l2 1c-1-3 1-1 3 1-3-4 1-3 1-4l-2-2c-1-4 2-2 1-5l2 3-2 1c0 2 1 3 3 4v-1l-1-1c3 2 3-2 2-5 3 4 2 1 5 4l1-1c-2-3-1 0-3-1l-3-7c3 2 2 3 3 5 2 1 1-1 0-2l-2-3c0-1 2 1 1-1-2-1 0 3-3 0v4-1l-1-1v1-1c-5-7 3-3 4-7v-1l-2-1c-1-1 1 2-1 0-1-1-1-3 1-2-2-1-3-5-1-3v2l3 4v1l3 1c0 2-2 1-1 5l4 3c-2-2-3-3-3-5 1 0 2 0 3-2l-3-2h-2l-1-3 2 2c2 0-2-3 0-3l3 4c-2-4 3-2 1-6l3 3v-1c1 2-2 1-3 1 2 3 4 2 6 4l-2-4c2 1 3 3 4 2l-4-3-1-3-3-2c0-1 2-1 1-3 2 2 4 5 1 4l3 3v-5c-2-2 0 1-1 0-2-2 0-1-1-3l2 2c-3-5 2-1 1-4 3 3 1 3 3 5v-1l2 3c-1-2 1-1-1-3-1-2 2 0 2-1l1 2c2 3 0-4 3 0l-1-3-2-2 2 1c-2-4 2-1 5-1-1-3 4-1 4-3-2-2-2 0-3-1-1-2 1-3 2-3 2 2-1 0 0 2l4 2-3-6 4 2s-1-2 1-1v3c1 0 0-2 3 0-1-2-2-1-3-2 0-3 1-3 3-4l3 4 1 2c2 1-1-3 1 0 2 1 0-2 0-2l-2-1v1l-2-4c-1-2 2 2 4 2h1l3 3h2c-1-2 1-2 3-1-2-2-4-3-4-5-2-1 1 3-1 2-2-2 0-2-1-3v3l2 1c1 3-2 0-1 2v-1l-2-1c-1-2 0-1 1-1l-2-1-2-3v-2l2 4c2 0 0-2-1-3l3-2c-1 0-2-1-1-2l3 3-2-3 3 4-2 1 1 2c2 0 5 3 4 1l6 3-3-2c-1-2 0-1 1-1l-2-3s-3-1-2 1l-2-3c0-1 2 2 1-1l2 2c-2-2-1-3 1-2-1-2-2-2-2-1l-1-2 4 2s-1-3 1 0l-1-4 2 3c1 0 4 1 2-2 0 0 2 0 2 2 1-2 1-6-3-11l1-1 4 4c0 2-1 1-2 1l2 3c0-1 0-2 1-1 2 1 0 1 1 2 2 2 0-2 2 0-3-4 1-2 4-1-1-2-3-5-4-4 2 2 1 1 0 1v-1c-2-1-3 1-4 1 0-5 6-5 7-9l1 2c2 5-3 3-3 6 3 1 4-1 6-2l-2-1v-4c3 2 1-1 3 0 1 1 0 3 2 3-2-2 0-1 1-1h-1c3 5-4 0-3 3l2 2s-1-3 2 0c0-3 2-2 3-3l-2-2v-2l-1 1c-1-2-1-3 2-1l-1-4c7 5 6-1 11 0-1-2-2-4 0-2l-1-3s0-1 0 0l3 4c2 1-3-4 0-2-2-3-1-2 0-3l2 3c0-3 3-2 0-8l1-1v1l1 2 2 1-1-2-1-1 4 4-3-4v-2c2 2 4 5 3 6h1c3 2 6 4 4-2l3 4c-1-3 2-1 3-2l-1-3 2 2-1-2 2 2c2 1 1-1-1-3h1l1 2c2 0 7 1 5-3 3 2 1-1 3 0l-2-6-2-1c-1-1 2 0 1-1l1 2h5l1 2c1 0 2 0 1-1-3-5 5-1 4-5l-7 1 2-1c-2-2-1 0-2 0l-1-3 2 1c0-1-3-5 0-5l1 4 2 3c0-1-3-7 0-5l1 2c2 1-1-4 0-4l4 4-1-1c-1-1 1-1-2-3 1 0 2 0 1-2l1-1 3 6v-3l2 2 3-2 1 3c3 0-2-6 2-3l-1-2c0-2 0 0-2-2v-1c2 1 2-2 4 0s1 3-1 1v3c0-1 4 2 2-2 2 1 2 3 4 3-2-3 0-4 1-5 2 1 0 1 1 2l3 2v-5c3 2 1-1 0-5 0 0 0 2-2 2l2 1-2 1v-1c-1-2-6-5-4-1-3-2-4-1-4 1-2-1-2-3-2 0-3-2-6-2-6 1-3-3-2 0-4-3l-1 2 2 1v1l-2-2h-2l1 1c-1-1-3-1-2 1l-1-1-3-3c2 4-1 4-4 2l1 3c-2 0-2-2-3-2 1 3-3 2-5 2l1 3c2 1-1-2 1-1l2 3c1 3-1 2-3 0-1-2 3 2 1-1 0 1-3-1-3-3h-4l-3-2 3 1-2-3-2 1 3 3c0 1-2 0-1 3l3 3c-1 2-2-2-4-2v-2c-4-2-4 1-8-1 1 3-2 2-3 3-2-2-1-3-2-5-3-1 1 4-3 0l4 4c-1 2-2 2-4 2 2 3 0 3-1 3l-1-2 2 1-1-2v-1c-2-1 0 2-3 0-1-2 0-1 1-1-2-3-2-1-3-1-2-4-2 0-4-1l3 4c-2-2-3-1-5-4v1c3 2 1 2 3 5-1 0-4-2-3 1l-3-4-4-1v2l2 2c-1-3 2-1 2-1 1 2-2 0-1 2-4-5-4-1-7-2 1 0 1-2 2-1-2-2-2 0-3 0l3 4c-1 1-3-2-4-3 1 1 0 1 0 0 2 3 1 4-2 1 3 3 1 1 2 4-3-1 0-2-3-4l2 5c-2-1-1-2-2-4v3l-2-2c-4-3-1 1-2 3-1 0-1-2-3-2 1 2-1 1-1 2l-3-3v-1c2 0 2 1 2 2 1-1 0-2 2-3h-3c-2 0 1 0-1-1l3-1-2-2 3 2v-1c-4-5 3 0 1-4l2 2c-1-2-3-3-3-5h-2l1 2c1 1 0 0-1 1-2-2 0-2-2-3l2-2 2 2c-4-7 3-5 5-6l2 3-7 2c1 2 2 1 1 0 2 1 2 0 3 2l1-2 3 4v-2c2 0 2 2 3 2 2 0 2-2 2-4l1 2c1 1-1-2 0 0h4l-1-4 3 3c-1-3-2-2-4-4 0-2 4 2 2 0l5 5-1-2c0-2 2-1 4-1-1-3-4-4-4-3 0-1-3-6-1-4l2 2c1 2-1-2 1 0-1-2-2-2-1-3l2 2c2 1-2-4 0-3l3 4-2-3h1l2 3 4 2c2 1 2-2 3-3 2 4 4 0 6 1 2 2-1 0 0 3 3 1 0-4 4-1l-2-2v-2c4 3 3-2 6 1 0-3 2-1 1-5l-2-1c0-4 4 0 7 4l-4-6h3l1 3s4 0 3-1l2 2c2 2 0 0 1-1l-2-1c1-1 7 3 7-1l3 2v-2c5 4 3-1 7 2 0-3 3-2 6-1l2 5c1-1 0-5 3-3l-7-10 4 1c-3-4-4 0-7-5l2 1c-2-2 1-1 0-3l4 4c-2-2-2-3-2-5 2 1 4 3 2 0l3 2 2 3c1 0 2 0 1-2l4 4c0-1-3-4-1-3l-2-3-2-3c-1-2 3 2 2 0s-2-1-3-2l2-1 2 3h2c-2-4 1-3 5-1l-2-3-3-2 2 2c-1 1-5 0-7-1 0-2 4 1 4-1l-4-1c0-2 3 0 1-3l3 3v-2l1 2 2 1c-2-3 0-2-1-4 2 0 2 2 4 3-1-1 2-1 3 1 0-2 2 0 2-1 2 1 0 0 1 2 2 1 2-1 3-1l-2-4v-3l-1-1 1 1c-1-1-1-2 1-1l1 2h-1l1 1s0-2 1-1l-1-2 3 4c1 2-3-2-1 1 2 2 3 1 2-1 2 0 2 1 3 2 0-2 0-5 2-3l-1-1c0-1 0-2 2 0v-3c0 2-4-2-3 1l-4-4c-1-3 1 0 2 0-1-3-2-1-4-3 1 1 1 2-1 0l1 3c2 1 1-1 3 2 0 1-2-2-2 0l-3-3c3 3 0 1-1 1l-1-2-4-1c-3-3-2 0-5-3v4l-1-3c-3-2-2 0-4-1l2 2c1 2-1 1 1 3l-2-2c-2-1-1-1-1-2-3-1-2 2-5-1 3 5-3-1-1 3-2-3-1-1-3-2 1-1 1-2 3 0-2-4 1-2 4-1l-2-4c1 5-10-3-5 5-1 1-2 2-4 1 1 1 1 2 2 1l1 4-2-1v-3l-3-1v2h-1l-2-3c-1 0 3 5 0 4l2 2v1c-2-4-6-3-8-4 0-2 5-1 2-4l3-1c-1-3-1 0-2-1l-1-3 4 3c0-2-2-3-3-4 0-2 2 1 3 1l-1-2 3 2c-1-3 0 0 1 0l1-4 3 3c-1 2-3 0-1 4v-3l2 2c-1-2-1-3 1-1 0-2-3-3-3-6 2 0 2 2 3 3 2 2 1 0 3 1l-2-2c0-1 4 2 2-2 3 0 3-3 7-1-1-2 1-1 1-1l-3-5-4-2 2 4c0 1-2 0-1 2-2-1-2-3-3-5-1-1-1 1-3-1-2 0 0 4-4 1l1-3c-1 0-1 1-3-1 1 2 1 2-1 0 2 4-3 0-4 2l-2-3h-2l5 5 2 2h-1c-1-1-1-2-3-2l1 2v1l-2-3c-1-2 2 1 1-2-6 2-11 5-19 5 3 4 0 3-2 1l4 5c0 2-3-2-3 0l-1-2c-1 0 0 3-2 2-3-5-4-1-8-4l2 3-3-1 2 2h-2l2 3c0 2-3-2-2 1l-1-3c-3 0-4-2-5 1l-2-2c0 3-3 2-3 4l-1-1v4l-2-3c-1 2-7-1-5 5l-3-3 1-2c-1 2-1 6-5 5 2 2 3 0 4 3-3-1-4-2-5-1 2 3 1 0 2 0v3l-3-5c-1 2 0 6-3 5l-2-1-1-1 1 3-3-2-2 2v-2c-3-2-2 2 0 5-2-1-2-3-2-4-1 1 0 5-2 4v-1c-1-2-3-2-3-1 0-1 0-2-2-2 0-1 2 0 1-2h-3c2 1 3 4 1 3l2 1c0 1-1 2 1 5l-3-4c0 2-1 3 1 5l-4 1 2 4c-3-3-3-4-5-4-1-2 1-1 1-2-2-2-1 1-3 1l2 2c-1 0-1 1-3-1l1 3c0 1-4-3-2 1-1-1-1-2-3-2 0-2 1-2 1-1-5-3-6 3-10 4l-2-4c-1 0 0 2-2 1l2 3c-1 1-7-2-4 5-2-2 0-2-1-3h-3l2 3c0 1-6-3-4 1l-3-2c0 1 1 3-1 1 3 5-3 1-2 5l-3-3c0 2 1 4-2 2v2l-2-2v1l-2 1v3l-1-2-2 1-1-3h-2l-1-2c1 0 3 2 2-1l-3-1c-2-2-1-2-1-3l2 3c2 1 0-2 0-3 0 0 0-2 2 0v3c1 2 2 0 2 3l-1-1c0 2 0 1 2 2h-1c2 1 2-2 5-2-3-2 0-1-2-3l-1 3c-5-5-1-5-1-7 3 1 3 4 6 6-2-3 2 0 0-3 0 1-2 1-4-2 3 2 0-2 3-1l3 3-1-2-1-2c-1-3 1-3 2-5-2-2-1 0-3-1 0-2 1-4 4 0v2l2 2c1-1-1-5 3-2-1-2 0-1 1-1l-2-2c2 1 2-4 5-1l1-2 2 2-1-3 3 4c2 1 2-1 4 2l-2-2c1 0 3 0 2-2l-2 1-2-3c-2 0 3 4 0 3l-2-4c1-1 5 2 6 0 2 2 0 2 1 3s1-1 1-2l-2-1v-2c2 2-1-3 4 0-2-2-1-3 1-1-2-4-1-5 1-4l-1-2c2 1 2-1 4 2l-1-4 4 5c-1-3 0-3 2-2l-3-5 4 5c-3-4-1-5 2-4l-1-3 2 2 3 4c0 1 0 0 0 0l1 1-2-4c0-2 2 2 4 2-1-2 2 0 1-1-2-2-2-1-2 0l-3-2c1 0-1-2 2-1 0-1-2-1-2-3 2 2 3 1 5 1-1-2-2-1-2-1-3-3-1-3 0-3 2 2-1 1 1 2 3 2-1-2 1-1 2 5 2-2 6 1l-1-6c3 4 3-1 2-3l2 2v-3c3 3 1 0 1-2l3 3c0-4 3-2 4-5l2 2c-3-4 0-2 2 0-2-3-3-5-1-5 2 2-1 1 1 3l2 1c-1-2-2-2-1-3l1 2c2 1 1-1 0-2 0-1 2 3 3 1-2-1-2-3-2-4 2 3 1 0 3 2-2-2-1-2 1-2l1 2c-2-3 3-1-1-5 2 1-1-3 1-2s1 1 2 4l2-1c-4-5 0-4 0-6l1 4-1-2c-2 0 0 2 0 3 1 0 1-1 5 2l-2-3c3 3 4-3 6-3l-1-3c-1-3 3 0 0-3l3 3-2-1c0 3 2 3 2 4v-3l1 1c0-2-1-1-2-3v-2l-9 2-2-2v2c-2-1-2-3-3-5 2-1 6 2 6-2l2 1c-2-2-1-2 0-2l-2-2c4 2 2-1 4-1l2 2c-1-2-2-3 0-3 1 1 0 2 2 3v-1l-1-2 6 1c-3-3 2 1 1-2l1 3 2-1-1-2-2-4c-1 1-3-2-3 1l-3-3 3 4v2c-2-3-2-1-2 0-2-1-1-2-2-4v2c-1 0-3-2-4-1l2 4-4-4c1 1-1 0-1 1l-3-3c-1 2-3 2-5 2 1 3-3 0-3 3-5-4-2 5-7 0v2l-3-1-1-3c2 2 2 1 3 1l-2-2c-1-2 1-2 1-2v2c2 2 2-2 3-2h-2c2-1 1-3 2-5 1 1 0 3 2 4l-1-3c3 1 3-1 3-3 1 3 2 1 3 1-1-1-1-3-2-2-1-4 3 1 2-3l3 4-1-3c0-2 4 1 2-2l2 1c-1-2 1-4 4-3 0 1-1 1 1 4l3 1s-3-2-1-2c-2-2-1 1-1 1-3-3-3-6 1-4 1 0-3-6 1-4l-1-2 2 2c1 1-1-3 1-2 2 2 1 2 1 3 1-2 1-5 5-3v-2l-2-2c3 1 2-3 5-1v2h4l-2-2v-2l-2-2-2-2v-1l6 3c1 2-3-1-1 1 1 2 1 0 3 2-2-2-2-4-1-4l1 2h3l-3-2c0-2 3-1 3-3-2-2 0 1-2 0l-1-1c2 1 1-1 1-3-2-2-3-1-1 1-2 0-2-3-2-2l-3-5c-1 1 0 2 1 3l-1-1 2 4c-1 0-3 0-3 2-4-3-2 1-4 1-3-4 0-3-2-6-1 3-4 0-3 5-2-2-4-3-3 0l-3-5h-1l3 4c-2-1-1 3-3 3V6c-3-3-1 3-2 5-1-3-2-1-2-1l1 2v1l-2-2-2 4-1-1V9c-3-2-3 1-4 0l2 2v1c-2 0-3-3-4-2l1 2v-1l2 2c3 1 3 3 2 3 0-2-2-1-3-3v2c-2-1-2-3-1-3-1-2-3-2-3-4-2 0-1 2-2 1l-2-4c-3-2 0 2-3 0l3 2h-2l4 5-2-2c2 3-4 4-6 0 1 2-1 1 1 3l-4-3c1 0 0-2 2-2-2-2-4-1-4 1l-3-3c1 2 1 4-2 2l3 5c-2-2 0 1-2 0 3 3 0 2 1 4-2 0-1-3-3-3v2l-2-3c0-2 3-2 3-5-2-1 0 2-3 0 2 6-6 0-5 5-5-3-5 4-10 0h-2c2 4-1 2-1 3l-2-2c1 3 0 3-1 1 0 4-4 1-5 4 2 1 1 2 2 3-2-1-1-2-2-3-4-2-3 2-4 3-3-3-4-2-3 0l-2-1c3 5-6 1-5 6-5-4-1 6-6 2l1-2c-2-2-1 2-3 2-1 0-5-1-3 1l-2-1c0 3-2 2-2 5-2-1-5 1-7 2-61 24-106 67-152 110l-2-3c6 0 6-8 11-8v-3 2c2 0 0-3 2-1l-2-4c0 1 0 4-3 1 2 1-2-2-2-4l4 4c-1-2-1-3 1-1 5 3 6 0 7-4 2-1 4-1 4-5l1 2c1-5 7-4 6-9l2 1-2-1c6 0 4-8 11-7-3-3 1-1 2-2s0-5 2-3c0-3 1-4 4-2 0-2-2-2-2-3l2 1c-1-3 2-1 2-3l1 2c-1-3 1-3 1-5 3 3 1 1 3 1l-1-2 2 2c-2-4 3-1 2-5l2 2c1-3 5-5 4-7 1-1 4 1 2-3 3 2 5 2 4-1 7-2 10-8 17-11l-1-2 3 1c1-5 9-3 9-10l3 2c1-1 1-4 3-4-1-1-4-4-4-6l4 3c1 1 2 3 0 2 1 2 3 2 1 0 5 2 3-4 8-2-2-3 0-3 3-1l-2-2 7-2-1-2c3 0 4-6 9-3l-1-1c4-1 5-4 10-4 0-3 5-3 8-5l-2-3h1c3 5 3 0 5 1-1-2-1 0-2-1-2-1-1-2-1-2 6 5 5 0 9 1l-2-3c0-1 1 0 0 0l1 2c2 1 2 0 2-1h-1l-2-3h-1v-3c2 2 2 1 3 1 2 2-2 0-1 2 4 2 1 2 1 3h1c3 2 0-1 4 0l-3-3 1 1-2-2v-5l2 2v-4c2 1 1 2 2 3l-1-2c-1-2 2 1 2-1l2 2c-2-3 0-6 2-2 1-1 3 0 2-3 3 3 1-2 4 1-3-6 5 1 3-4 3 0 3-2 5-1l2 2c-1-6 5-2 5-5l-1-1-2-2c2 0 4 2 5 1l-1-1c-2-1 1 0-1-2l2 1c-3-5 4 0 3-4l3 4h2l-3-2v-3l2 3c0-2 2-2 3-3l3 3c-3-5 2-4 2-7 2 2 3 1 3 3l-1-2c1-1 4 3 4 1l-2-1-1-1c2-1 5 1 4-4l4 4-3-3c-2-4 3 1 2-3l4 5-4-5c0-2 2 1 2 0l1 3v-3c3 2 1-1 4 2 0-2 1-2 2-1l-2-4-2-2c-1 1 1 3-1 1l1 2c-1 0-3 3-6-2v2c-2-1-3-3-2-4zM85 129zm327-12-1-1v1h1zm-51 30zm-47 64 1 2-1-2zm-16 9-1-3v2l1 1zM12 464v-1l-2-3 2 4zm-53-86zM261-13zm0 0c1 0 2 0 1-1l-1 1zm9-3c-1-2 0-2 2-1-2-4 3 0 2-3l-6 2c0 2 0 1 2 2zM240-4l1 1c2 2 1 2-1 1v-2zm25 3 2 3-2-1c1 3 0 3-2 2l2 3c-1-2 0-3 3-3l-2-3-1-1zm84 1-2 2c2 0 2 2 3 2-2-4 0-2 0-4h-1zm-64 3 1 2c1 2 0-1 2 1l-3-3zm-64 0h1c0 1 2 4 0 2l-1-2zm154 2 1 2c-1 0-2 2-5 1 1 2 0 2-2 0l2 2-3-2 3 6v-3c2 2 2 0 2 0 4 3 4 0 6 1-1-2-4-3-4-2-1-3 3 0 1-3 1 1 1 3 3 3V9l-4-4zm-70 0 1 3 1 1c-2-3 1-2-1-4h-1zm-32 0 2 2 1 1c1 3 0 0 1 1l-1-3-3-1zm90 0v1s2 2 2 0l-2-1zm-80 0v2l-2-1c1 2 2 1 3 2l-1-3zm73 1v1l2 1-1-2h-1zm-16 0 1 1c1 2 2 2 1 0l-2-1zm4 0v2c2 2 0-2 1-1l-1-1zm-71 1-2 1c2 3 3 1 3 1l-1-2zm-7 2v1c1 1 4 3 3 1l-3-2zm-5 1c1 2-2 0-2 3 2-1 6 3 3-2l-1-1zm4 0-1 1c1 2 0-1 3 1l-2-2zm82 1h1c1 3-1 3-2 2l-1-2c2 2 1 0 2 0zm18 0c1 1 3 2 2 0h-2zm-3 0v1l2 1v-1l-2-1zm-109 1v1l4 4c-3-3 0-1-1-3l-3-2zm4 0c2 2 0 1 1 3 2 2-1-2 1 0v-2l-2-1zm-11 2c-1 0 2 4 0 4l3 2c0-2 0 0-2-2 1-1 4 1 4-1-2-2-2 1-3 0l-1-3h-1zm37 0 1 1c1 2-1 1-2 1-1-1 0-2 1-2zm-41 1v1c1 2 1 1 2 1l1 3c2 1 0-2 2 0l-5-5zm73 0h1c1 3-1 1-1 1v-1zm-76 2c-1 0 0 3-2 1l1 2c1-1 2-1 2-3h-1zm39 1 3 1h-4l1-1zm-11 1h2c1 2-1 1-2 1v-1zm-29 1c1 2-1 1-2 0v4h2l-2-2v-1l3 3-1-2 2 1c0-1 1-2 3-1-3-3-2 1-5-2zm112 0v2s2 0 0-2zm-124 2h1c1 2 0 2-1 2v-2zm117 0v1c1 1 2 1 2-1h-2zm-79 1c2 2 1 3 0 2-2-2 0-2 0-2zm-56 1c4 3 4 3 7 3 0 2 1 5-1 5-1-1 0-3-2-3l2 4-2-1-4-8zm10 0v1c2 1 2 2 0 1v-2zm34 3 2 1c-1 0 0 2-2 1v-2zm-44 2 2 1 2 4-2-1 1 1c-1 0 0 3-3 0-1-2 2-1-1-3l1-2zm37 0c2 3-1 3-3 2 0-2 2 0 3-2zm99 3 4 2c-1-2-3-2-4-2zm-8 0-1 2 4 1c-1-2-3-1-3-3zm-11 2v2l2 1-2-3zm-123 1h1c1 2 0 2-1 1v-1zm-9 3h1c0 2 0 3-2 1 0-1 0-2 1-1zm116 3c1 2 1 4-1 1l1-1zm29 4h-1l1 1 1 2-1-3zm7 0h-1c1 2 4 3 3 1l-2-1zm-166 3 2 2-2-1v-1zm178 5c1 2 2 3 4 3l-1-2-3-1zm-2 1 3 3v-1c1-1-1 0-3-2zm0 1c-3-1-2 2-5 1 0 2 2 3 3 5 2 0-1-2 0-2l2 1c-2-2 0-2-1-4l3 2c0-2-2-2-2-3zm-8 0c-1 2-3 2-3 6l2 1v-2c1 2 2-2 3 1 2 1 0-4-2-6zm-4 3v2c2 1 0-2 0-2zm-21 1h1l2 3v2c0-2-3-5-3-5zm18 0v3l2 2c2 1-1-4 0-3l-2-2zm-20 1h1v2h2l-2-1 2 4c-3-1-1 4-5 0 2 3 1 4 0 3 1-2-2-5-2-8l3 3 1-3zm-8 1c1 1 3 4 2 1 1 1 4 4 2 4l-1-2c4 5 0 4 1 7l-3-2s1 3-1 2c-2-3-1-4 0-4v-1l-3-1c1 3 2 5-1 4 2-1 0-3-1-4 2 2 2 0 1-2l2 2c-1-3 3-1 2-4zm2 5 1 3v-3h-1zm15 0c0 2 2 2 2 3l-2-1v-2zm3 1h1v3l-1-3zm-34 1 3 1v3l4 1-1 1-2-1c1 2-1 1-1 3l-2-3c2 1 2 0 2-1l-3-4zm10 1 1 1c1 2-1 2-2 2l-1-2c2 1 3 1 2-1zm-5 1 2 1c0 2-1 1-2 0v-1zm-5 3c2 3 1 4-1 2 2 0 0-1 1-2zm-7 2c1 0 2 0 3 2l-3 1v-3zm25 1 2 1s-1 2-3 0l1-1zm-26 1v2-2zm-3 0 1 1v1l-2-1 1-1zm1 4h1v1l-1 1v-2zm87 0c-1 0-1 2 1 3l-1-3zm-104 0 1 1 1 2c-2-1-3-2-2-3zm-142 2h1l1 3-2-3zm237 0 1 3h1l-1-2-1-1zm29 2v2c1 0 3 1 2-1l-2-1zm-15 1h1c-1 1-1 3-3 2-1-2 1-2 2-2zm-26 1h-2l2 4v-4zm41 0 2 4h1l-3-4zm-48 1 3 3-1-1-2-2zm52 0v2c2 2 0-1 1-1l-1-1zm-102 1h1c1 2 0 4-2 1 2 1 1 0 1-1zm5 1v1c1 1 3 2 2 0l-2-1zm78 1h1c2 3 1 3-1 1v-1zm-258 1h1c0 1 0 3-2 1 1 1 0-1 1-1zm263 1 1 1 1 2-2-1-2-2c1 0 2 2 2 0zm-54 1c-1 0-2 0-1 2 0-1 2 0 1-2zm-82 0 1 1v-1c2 2 2 4 0 4l-1-4zm140 0 1 1c-1 0-1 2-3-1h2zm-42 0 2 1c1 2 0 2-2 1v-2zm-58 0c0 3-1 3-4 2l4-2zm86 1h2c1 3 0 2-1 2l-1-2zm-6 0 1 1c-1 0 1 3-1 2v-3zm-2 2 2 1v2l2 2c-2-1 1 2-1 0l-3-5zm-29 1h2c1 3-2 1 0 3l-3-2 1-1zm-62 0c1 0 3 3 4 2v2l-4-4zm81 1 4 6-2-2c0 2 1 2 2 3l-2-1-2-2v-2l2 1c0-1-2-1-2-3zm35 1 1 2v2c1 0 3 0 1-2l-2-2zm10 2-1 1c1 0 3 2 3 0l-2-1zm-20 0c-1 0-1 2 1 4l-1-4zm-74 1c0 2 2 3 3 3 0-2-2-2-2-3h-1zm18 1 1 3c-2-1-2-3-1-3zm41 0 3 2v3l-2-2-1-3zm-5 1c3 3 1-1 3 0 3 4 0 3-3 0zm1 3h1c-1 1 2 3 0 3l-1-3zm-97 0 1 1c1 1 0 2-1 1v-2zm27 1h-1v1l1 1 1 1-1-2h1l-1-1zm132 1v2l1 1-1-3zm-36 0c2 2 3 6 1 5l-2-3c2 2 2 0 1-2zm-78 1 1 1c1 2-1 3-3 0 2 2 1-1 2-1zm36 0h1c1 2-2 1-3 0h2zm-30 0 1 1c1 2 0 1-1 0v-1zm106 0 1 5c0-2 1-2-1-5zm-149 1-1 1c2 2 2 0 1-1zm109 0 2 2c-1 0 1 2-1 1l-1-3zm-100 1 1 1h-1l1 3 2 1c0-1 0-3-3-5zm77 2h2l1 2-3-2zm24 0 1 1h-1l3 4-2-1c-1-3-2 0-4-3 2 1 2-1 3-1zm-26 0c2 2 0 2-1 2l1-2zm41 0 3 3c2 3-3-2-4-2-1-2 3 2 1-1zm-19 1 2 2c0 1-3-1-3 1l1-3zm-98 0v2l2 2v-2h-1l-1-2zm95 0 1 1c1 1-1 1-2-1h1zm-118 1c1 3-2 2 0 6l2-4 1 2c2 0-1-3-3-4zm148 0c2 2 0-1 2 0 2 3-1 3-2 0zm-34 1h2l1 4-3-3v-1zm-79 1c1 2 0 2-1 3-1-3 0-3 1-3zm-14 1 3 2c-2 0 0 3-3 1v-3zm91 0h1l2 2c-3-1-1 2-4 1l1-3zm10 1 2 1h-3c0-1 0-2 1-1zm-23 0c1 2 4 8 6 8l1 3c-3-3-2 0-4-1-1-3 0 1-3-2l3-1c-1-3-5-8-3-7zm-3 1h1c2 2 2 5 1 4l-2-4zm22 0h2v2l-2-1v-1zm-124 1 1 3 1-1-2-2zm130 1 2 2c0-1 1-4 5-1-2 0 0 1-1 1l2 3-2 1-3-4c2 4 1 3 0 4l-5-2c-1-3 2-2 3-2l-2-2h1zm-131 0v1c1 1-2-2-1 1 3 2 2 0 3 0l-2-2zm125 0c1 1 2 0 3 2h-2c1 2 3 2 3 4l-3-3-1-3zm-292 1 2 2c0 1 0 2-2 0v-2zm156 4 2 3-2-3zm-6 2 1 1 3 4 2 1c-2 2-4 3-8 3-1-4 3 1 2-2-2-1-2 0-3-2 1-1 2 1 4 2-1-2 2 0 1-2l-3-1v-3l3 3-3-3 1-1zm-154 1h1c2 2 0 3-2 1l1-1zm298 1c3 1 4 4 6 8l-2-2h-1l2 2 1 2h-2l-1-2h-1l-2-2c-1-2 1 1 1-1-3-2-2 0-4-1-1-1-4-3-2-3 1 2 1 0 2 1-1-3 2 0 1-2 2 2 3 3 4 2l-2-2zm-55 2h1c1 2 0 2-1 1v-1zm50 1 3 2c-1 1-3-1-3-2zm-145 0c2 1 3 5 2 4l-2-4zm-1 1 1 1c1 2 2 4 0 3l-1-4zm151 0 2 2v-1l-2-1zm-50 4h1l1 3c-2-1-1 2-2 1-2-3 0-2 1-3l-1-1zm57 0 2 2-2-2zm-62 1 2 2v2h-3l-1-4c2 2 3 2 2 0zm28 0c1 0 2 0 3 2-3-2-1 2-4 0l1-2zm-5 0 2 1 2 4c-3-2-2 0-4-1-1-2 2 0 0-4zm-128 1h1l3 4h-2l-2-4zm-145 2 2 1c-2-1 0 4-3 1l1-2zm239 1 3 2c-2-2 0 2-3 0v-2zm-2 0 2 2c1 2 0 3-2 1-1-2 2 0 0-3zm31 1h1l-1 2v-2zm-39 1c2 1 2 2 5 2 1 4-3 0-5-2zm78 0 3 3c0 1-2 0 0 2 1 1-1-2 1 0-2-3 1-1 0-4-2-1-1 1-4-1zm-172 1h1c0 3 1 3 2 5-1-1-1-1-1 1-2-2-3-5-2-6zm-142 0c2 2 2 1 3 1 0 2 0 3-1 2l-2-3zm269 1 2 3-2-3zm-273 0 2 2c1 2-2 0-2-2zm260 0 3 2-2-1-1-1zm12 1h1c1 2-1 1-2 0h1zm-14 0h1v3l-1-3zm-2 1c2 2 1 2-1 1-1-2 1-1 1-1zm-3 0c3 4-1 3-3 3 0-3 1-3 3-3zm57 0v1c3 3 2 0 5 3l-2-2-3-2zm-56 1c1-1 2 1 3 2v3s1-1 1 1l-3-1-2-3 3 3c0-2 0-3-2-5zm-6 0 2 2c-2-1 1 3-1 1l-1-3zm21 0c-1 2-3 1 2 5l-2-5zm55 1c-1 0-2 0-1 2 0 0 0-2 1 0 2 1 0-3 2-1l-2-1zm-25 1v1c1 0 2 1 2-1h-2zm49 0 1 2h2l-1-1-2-1zm-56 0-1 1 2 1-1-2zm52 0v3s2-1 1-3h-1zm-65 1h-3c1 2 2 0 3 2 0 0 0-3 1-2h-1zm33 0v2c0-1 0-2 2-1l-2-1zm-29 1 7 6c-4-4 1 0 2-1v-1h-3c-2-3-5-4-6-4zm-288 0h1c0 2 2 3 3 4h-3l-1-3c1 2 2 3 2 1l-3-2h1zm295 0-1 1c1 1 3 2 2 0l-1-1zm-12 1 2 3-2-3zm61 0 1 3v1l-3-3 2-1zm-88 0s1 2 3 2c1 2-2 1-3-1v-1zm26 1-1 2h2l-1-2zm7 0h-1c1 1 4 4 1 2l2 2c0-1 0-2 1-1 0-2-1-2-1-1l-1-2h-1zm-70 1 2 1c0 1 0 2-1 1l-1-2zm-221 0c2 1 4 4 2 3l-2-3zm-1 1h1c1 2 1 2-1 1v-1zm252 0 2 4-2-4zm33 1 1 3h1l-2-3zm5 0c-1 0-2 0 0 3 0-2 3 1 1-3h-1zm-34 0c-1 1 1 4 2 4 0 0 0-1 0 0v-1l-2-2v-1zm72 1 3 1-3-1zm5 0h2c0 1-1 2-3 0h1zm-335 0 3 3c-2-1-1 2-2 2-1-2-1-4-3-5h2zm316 0c1 2 2 5 0 3v-3zm-44 1c-1 0 3 3 1 2 3 3 0-2-1-2zm-30 1c1-1 1 0 3 1-2-1-2 2-3 0v-1zm-8 0 1 1 1 2-2-1v-2zm38 0v3l1-3h-1zm38 0 1 1 1 3c2 1 1-2 3 1-1 0-1 1-3-1l-2-2v-2zm-66 2 1 1 2 3-3-3v-1zm-6 0 2 2c1 3-2-1-3-1l1-1zm65 1 3 2c1 3 0 5-2 3l-1-2c1 0 3 3 3 0-1-1-2 0-3-3zm-59 1h1l2 3c-2 0-3-3-3-3zm51 0 2 1c1 2-1 0-2 0v-1zm-60 0h1l3 8c-4-3-3 2-3 4l-2-3v3l2 1c-2-1-1 2-3 0 1 1 0-4-3-5 3 3-1 2-2 1 1 0 3 0 1-3h-2c0-2 5 2 6 3l-1-3c3 2 4 1 5-1l-3-5c2 3 0 0 1 0zm82 0 3 2c-1 1 2 6-1 3l-2-5zm-37 0 1 1 1 2-2-3zm-41 1 3 3v-2c2 1 2 2 2 4-2-2-1 0-3 0-1-2-3-4-2-5zm97 0 1 3v-2l-1-1zm-47 0 1 1 1 2-2-3zm27 1 3 4-4-2 1-2zm-3 1h2c1 3-2 1-3 0h1zm-13 0 2 1c1 1 1 2-1 1l-1-2zm-83 0 1 1 2 5-2-1v-1l-1-1c3 2-1-2-1-3h1zm32 1 1 1c1 3 0 2-1 2v-3zm40 3c2 1 4 4 3 5l-3-5zm-93 0 2 1c-1 0-1 3-3 0l1-1zm45 0 2 2h-2v-2zm5 1 1 1c2 2-1 1-2-1h1zm-21 0 2 3h-2c0-1-2-3 0-3zm73 1 2 4c-2 0-1-2-2-3-1 0 0 3-2 1 0-2 1-2 2-2zm-17 0 2 1c0 1 2 2 0 2l-2-3zm-43 1 1 1h-2l1-1zm-22 0 2 2c0-3 2-3 6 0-3-1-4 1-3 3l-4-3c2 2 2 2 1 3l-2-2c2 2 1 1 0 1 2 2 1 3 0 2l-1-4c1 0 2 1 1-2zm72 0c2 2 1 0 3 1 1 2-2 1-1 3l-2-1c0-2 2 0 0-3zm-57 1 1 3c-1-2-1 0-2-1-1-2 0-2 1-2zm55 1h1c-1 1-1 5-5 0 3 2 3 0 4 0zm-58 0 1 1c0 2-2 0-1 2l-2-1 2-2zm81 1c0 1-1 2-3 1l3-1zm-109 0 3 1v2c-2-2-1 1-4 0l1-3zm9 1c3 3 1 0 3 1l3 5c-4-4-3 1-6 1l2-5-2-2zm4 0 2 2c-2-2-1 2-2-1v-1zm64 0 2 3-2-1v-2zm-58 1c1 1 2 0 3 2h-3v-2zm49 1 1 3c-2-2 0 1-2 0l1-3zm-87 0c2 1 1 2 0 2v-2zm83 1 1 1v2l-1-3zm-61 1 1 1c1 2 2 2 4 2 0 3-2 1-4-1l-1-2zm-11 0c1 2 1 3-1 2l1-2zm71 0 1 1c0 2-1 2-3 2 0-2 1-3 2-3zm-3 2h1c1 2 0 2-1 2v-2zm-74 0 1 3c-4-3-2 1-4 0-2-3 2-2 3-3zm17 1 1 1c-2-1 0 3-2 2l1-3zm47 0 1 1c1 1 1 2-1 1v-2zm-80 2 2 1c-1-1 0 2-2 0v-1zm27 0c1 0 2 0 3 2-3-2-2 2-5 0l2-2zm-10 1 1 1c-2-1 2 4-1 3l-1-4h1zm-5 2c2 1 2 4 0 2v-2zm50 1c1 2 1 4-1 2l1-2zm-71 2h1c1 2 1 2-1 1v-1zm14 0c3 2 3 4 5 3 0 1-1 3-3 1 0 1-3 0 0 3l-2-2-1-2c1 0 2 0 0-3l2 2-1-2zm-4 0 1 1 1 2c0 1-3-2-1 1-2-1-2-3-1-4zm108 1c2 4 0 3 0 4 0 0 4 1 2-1 2 1 3 1 3-1-3-1-3 0-5-2zm-109 2h1l2 6c-2-2-3-3-3-5v-1zm75 1 1 3-1-3zm10 4 2 2c-2-1 1 3 0 4l-3-5c2 2 1 0 1-1zm28 1c-2 0-3 1-3 3 2-1 3-4 7-1l-4-2zm-127 0 2 2c-2-1 1 2 0 2-2-1-3-4-2-4zm96 1 2 1c1 2 2 5 0 4l-1-3-2-2h1zm-4 1c1 0 2-1 3 1-1-1 1 2-2 0l-1-1zm0 1 1 1-3 1c0-2 2-1 2-2zm-4 1h1v2l-2-2h1zm26 1h-1c1 2 2 0 2 0h-1zm-29 0h1l-1 2v-2zm-4 0c2 2 1 0 3 1v1c-1-1 0 1-1 1l-2-3zm25 1 1 3v-2l-1-1zm-2 2-5 2c3 2 1-1 4 2-2-3 2-1 0-3l3 2c-2-2-2-2-1-3h-1zm-48 2h1c0 1 3 4 1 4l-2-3v-1zm41 0-2 1c4 5 4 1 4-1h-2zm11 1-1 2 2 1v-2l-1-1zm-46 2h2c-1 1 0 3-1 2l-1-2zm-2 1h1c1 3 8 9 5 8l-3-4h-2l-1-4zm5 1 1 2c-1-1 1 2-2 0l1-2zm-7 1h1l-1 2v-2zm21 2-1 1 1 1v-2zm2 1 1 4 2 1-1-3-2-2zm-6 3v1l3 2-3-3zm-1 0 1 2 2 2-1-2-2-2zm1 4v1l3 1-3-2zm-1 0c-1 1 2 4 0 3l1 1-1-4zm-9 4 1 2 2 1c-1-1-1-3-3-3zm-2 3s2 3-1 0l1 2c2 1 1-1 2-1l-2-1zm-2 1-1 1 2 1v-2h-1zm-3 1-2 1 3 3-1-2v-2zm-27 2 1 1c1 2 0 1-1 1v-2zm-283 2 2 3s3 4 2 5l-4-5 2 1c-1-2-4-4-2-4zm279 1 2 2c1 0 1-3 3-1 1 2 0 4-2 2 2 4-1 1-1 1l3 5-4-5 1 2s-2 0-3-2c1 1 0-5 1-4zm21 1s1 3-1 1c3 5 0 3-1 4 0 1 2 1 2 3 0-2 3-1 2-3l2 2-1-3v-1l-3-3zm12 0-1 2 3 1-2-2v-1zm-5 2-2 1c1 1 4 2 3-1h-1zm-308 0 3 2c1 1 3 4 1 3-1-4-2 0-4-5zm-1 2 3 5-4-4c1 1 0-1 1-1zm288 0c0 2 0 4-2 3 0-2 1-2 2-3zm18 1c1 2 3 2 3 4v-1c-2-1-1 0-1-2l-2-1zm-30 1 2 2-2-1v-1zm7 0c3 3 2 3 2 4l-2-1v-3zm-283 1 2 2c1 1 0 1-1 1l-1-3zm302 1c1 1 1 3 3 3-2-1-1 0-1-2l-2-1zm-30 1h1v3l-2-1 2 3-4-4 3-1zm-6 3h1l1 1c0 1-1 2-2 0v-1zm20 2 1 2-2-2h1s-1-1 0 0zm-25 1 5 5c-1 0-1 2-3 1l1-2-2-1-1-3zm-5 0h2c1 2 3 3 3 5l-5-5zm1 3h1l2 4h-2l-2-2c-1-2 0-2 1-2zm5 3h1l-1 2-1-1-1 1 2-2zm-11 0 2 2c1 1-1 0-1 1l-1-3zm6 1 1 1 2 4-2-2 1 2-2-3h1l-1-2zm-12 3 1 1v1l-2-2h1zm-2 1h1c1 2-2 1-2 2l1-2zm-8 0 2 1v3l-2-2v-2zm16 1 2 1c-1 1 0 2-2 2-1-3 1-1 1-2l-1-1zm-3 0h1c0 2-1 3-2 1l1-1zm-2 3c1 2 1 4-1 3-2-3 0-3 1-3zm17 1c-1 0-2 1-1 2 1 0 1-2 2-1l-1-1zm-24 3 2 2v1c-1 1-3 0-4 2h1v2l-4-3c3 1 3-4 6-2l-1-2zm-8 6 2 2v1l-2-2v-1zm2 13h-1c1 2 3 2 2 0h-1zm-21 2 2 1c-1 0 0 2-2 0v-1zm3 6-1 2 2-1-1-1zm-7 5v4c1 0 2-1 0-4zm-12 14-2 1c1 1 3 1 2-1zm-19 0 4 3c-2-2-2 0-4-3zm13 3h-2l1 1 1 1c-1-2 1-1 1-1l-1-1zm-20 2 2 1c0 1-1 1 1 4l-3-1v-4zm-2 5 1 2c-1-1-1 1-3-1 2 1 1-1 2-1zm-16 12 2 3c1 1 0 1-1 1l-1-4zm-2 2c1 1 2 5 0 2v-2zm-143 6 1 2 1 8c-2-1-2-3-3-5l1-5zm137 1 3 4c1-1-1-3-3-4zm10 3 2 2-2 2c2 1 3 0 3-2l-3-2zm-4 2 2 3v-1l-2-2zm-145 1v6l-2-3c1-1 0-3 2-3zm132 4c1 1 0 2-1 1-1-2 1 0 1-1zm-148 12 2 1 1 2c-2 0-2-2-3-3zm127 13c1 3 0 4-2 2 2 1 0-2 2-2zm-2 3h1c1 2 0 3-2 1l1-1zm-2 2 2 1c1 2 0 1-1 1l-1-2zm12 2 1 3v-2l-1-1zm-3 6c-2 0-2 2-3 4 2 1 0 2 1 3 2-1 1-5 2-7zm5 1 1 3-1-3zm-9 4v2c1 1 2 0 1-2h-1zm-8 0 3 5c-2-4 1-2 0-4l-3-1zm-88 0 1 1c0 1 2 3 0 2l-1-3zm3 1 2 2 2 4c-2 0-2-1-2-2h-1c0-1 1-1-2-4h1zm92 2s-2-1-1 1c1 1 3 1 1-1zm4 1 2 3 1 1v-1c-2-1-1-3-3-3zm-9 1c-1 0 3 4 1 3 1 2 2 2 1 0l-2-2v-1zm-2 7c1 3-2 2-1 5l1 2 1-4c2 1 0 2 2 3 1 1-2-3 0-2 0 0-3-2-1-2l-1-1-1-1zm-17 1v4-4zm13 4h-1c2 1 3 2 3 4l1-3c-1 1-2-1-3-1zm4 5-1 3c2 0 1-1 1-3zm-5 2c-1 0 0 4-2 3l2 2c1 0-1-5 2-4l-2-1zm26 0-1 2 2 1v-2l-1-1zm-23 3v5c2 1 1-3 1-5h-1zm22 1c-2 0-2 1-2 4l2-4zm-28 1v4c3 1 3 4 2 4l-2-4c-2-2 0 1-2 0 3 4 4 9 5 12 2 3 0-4-1-6l3 3-5-13zm-14 3h1c-1 1 1 4 4 5v2c-2-1-2-4-5-5v-2zm20 1c-1 0-2 0-1 3 0-2 3 0 2-3h-1zm3 1v3c1 1-1-2 1-2l-1-1zm-14 4c0 1 0 3 2 4l-2-4zm2 1 1 2 1 2h2c-1-1-3-3-1-3l-3-1zm-32 0h1c1 2-1 2-2 1l1-1zm-5 0 1 1c-1 0 1 3-1 2v-3zm-4 3 1 1h-1v-1zm40 1 1 3c2 1 1-2 1-2-1-2-1 0-2-1zm-35 6 1 1 1 2c-1-1-1-1 0 0-2-1-2-2-2-3zm-39 2 1 4-1-4z"/><use href="#fondo-d" transform="rotate(168 531 558) scale(1.1128)"/><path id="fondo-e" fill="#fff845" d="m23910 3892 4 1c19 8 9 44-17 62-27 19-36 19-43 0s35-63 56-63zm-8510 59c7 0 16 2 27 5 31 8 41 65 19 99a57 57 0 0 1-89 7c-23-25-21-64 3-90 15-16 24-22 40-21zm-690 192c14 1 20 11 20 31 0 24-17 46-35 46-6 0-16-5-23-12-22-22-14-55 13-62 10-2 19-4 25-3zm-2599 88c39 1 70 33 87 93 17 64 15 84-12 142-29 63-51 75-93 51-61-34-88-112-69-205 9-44 16-59 36-69 18-9 35-13 51-12zm9274 251c26-1 31 38 9 107-23 70-49 101-86 101-22 0-31-6-39-27-13-35 11-93 62-146 23-24 41-35 54-35zm-6235 88c20 0 79 56 91 88 31 82-9 234-71 264-53 26-82 29-117 14-40-18-62-60-69-133-5-56-4-60 41-128 43-66 89-104 125-105zm-8723-47c25 1 53 31 53 63 0 18 7 55 16 81 29 86 4 193-45 193-9 0-28-10-43-23-37-32-48-58-47-119 1-69 30-178 50-191 5-3 11-5 16-4zm9271 240c3 0 5 1 8 3 22 13 32 56 34 149 2 78-27 180-60 210-25 23-92 31-108 13-20-25-52-102-52-129 0-40 45-119 109-189 41-45 57-58 69-57zm2574 69c12 0 18 6 22 23 10 40-9 57-42 36-21-13-11-55 14-59h6zm-4265 308c13 2 18 27 7 54-8 20-40 21-47 2-7-18 20-56 39-56h1zm4015 170c5 1 8 4 8 9 0 6-4 13-10 16-5 3-10-1-10-9 0-9 5-16 10-16h2zm4436 150c1 0 2 1 2 3-1 11-50 54-50 43 0-3 11-16 25-30 10-10 19-16 23-16zm-2760 30c12 1 24 5 34 13 19 13 21 24 19 83-1 31-9 50-37 82-41 48-65 52-99 18-49-49-43-94 21-163 21-22 42-33 62-33zM7439 5260c4 0 26 30 50 66 43 65 43 66 36 130-5 48-11 67-25 74-32 17-58 11-80-17-21-26-22-35-15-128 6-91 16-125 34-125zm14236 614c4 0 8 2 10 7 10 15-5 49-21 49-8 0-14-10-14-24 0-19 14-34 25-32zm-3100-18c4 0 7 2 11 5 17 14 18 41 2 57-15 15-20 15-42-1-16-12-16-14 4-40 12-14 19-21 25-21zm3829 254c2 0-4 16-12 35-15 32-42 49-42 25 0-8 46-60 54-60zm-6603-130c5 1 9 8 9 15 0 8-4 15-10 15-5 0-10-7-10-15s5-15 10-15h1zm-3797 158c20 1 44 9 57 20 25 21 24 57-1 82-27 27-42 25-67-7-24-34-34-81-19-90 7-4 18-6 30-5zm12417 303c3 1 7 3 11 7 9 9 9 15 0 24s-13 7-18-6c-6-16-2-26 7-25zM7885 6130c23 0 65 38 65 58 0 10-49 42-64 42-3 0-14-10-26-22-34-36-20-78 25-78zm-1814-20c6 1 11 11 7 21-4 11-6 11-12 0-4-7-5-15-2-18s5-3 7-3zm7752 415c19 1 37 16 37 35 0 35-51 65-73 43-15-15-7-63 13-73 7-4 15-5 23-5zm10007 225c18 0 33 7 38 18 14 25 4 40-22 35-13-3-27 0-30 6-8 12-29 15-39 5-3-4 0-19 9-35 11-22 22-29 44-29zm60 77v24c0 27-17 49-37 49-7 0-13-6-13-13 0-8 11-24 25-37zm-153 29 8 4c3 5 19 7 35 3 17-3 30-2 30 1 0 19-32 66-45 66-20 0-66 48-54 56 7 4 8 25 4 55-6 40-4 49 8 49 21 0 32 19 19 32-8 8-15 8-26-1s-20-10-35-2c-24 13-81 14-81 2 0-5 10-12 23-14 19-4 19-4-5-6-45-2-41-71 7-121 14-14 25-31 25-36 0-6 9-19 20-29s20-23 20-30c0-13 31-29 47-29zm-3609-39 12 2c32 9 42 68 14 88-24 17-31 16-54-7-38-38-19-86 28-83zm-2518-36c6 0 10 4 12 11 6 18-18 162-31 187-23 41-74 54-91 22-25-49-5-114 59-184 23-25 40-37 51-36zm1637 51c15 1 23 11 23 32 0 34-34 59-53 39-16-15-7-62 13-68l17-3zm4429 148c-8-1-17 3-22 11-7 12 15 31 28 23 4-3 8-12 8-20 0-9-7-13-14-14zm140 23 4 2c19 12 11 63-12 79-29 20-35 20-40-2-3-11 4-28 18-41 13-13 24-27 24-33 0-3 2-5 6-5zm-4474-13c4 1 6 5 3 10-3 6-8 10-11 10-2 0-4-4-4-10 0-5 5-10 11-10h1zm2271 61c5 1 7 7 5 20-1 12-9 24-16 27-9 3-13-3-10-19 1-12 9-24 16-27l5-1zm-8399 222 3 5c3 7 2 16-1 19-3 4-6-2-5-13 0-7 1-11 3-11zm820 80 3 5c3 7 2 16-1 19-3 4-6-2-5-13 0-7 1-11 3-11zm-9934-152c5 0 9 5 17 12 14 13 15 21 7 35-15 22-38 26-53 9-9-11-7-20 8-38 11-13 16-19 21-18zm10834 274c19 1 22 8 29 58 7 47 5 64-8 83-21 32-62 33-70 1-3-12 0-49 7-82 12-54 16-60 38-60h4zm-2102-31c11 0 21 12 34 38 26 51-11 97-55 69-8-5-12-18-8-30 3-12 1-21-4-21-16 0-10-26 10-44 9-8 16-12 23-12zm-3329 67c8 0 16 4 22 10 15 16 45 154 45 210 0 40-20 102-37 112-4 3-24 8-44 12-32 6-40 3-63-22-15-15-29-38-33-51-9-36 2-124 20-157 9-16 23-47 33-68 13-30 37-47 57-46zm-4385-51c16 2 35 38 28 56-8 20-22 17-40-7-16-24-11-49 10-49h2zm8793 230c10 1 20 22 17 41-3 22-3 22-17-4-8-15-11-30-8-34 2-2 5-3 8-3zm-26 58 2 5c2 9 2 23 0 30-3 6-5-1-5-18 0-11 1-17 3-17zm41 17c4 0 9 2 14 5 12 8 11 14-6 37-27 36-54 42-54 13 0-16 4-20 15-16 10 3 15-1 15-14 0-17 6-26 16-25zm5833 135c14 1 15 32-1 48-13 13-16 13-35 5-7-2-13-9-13-15 0-13 30-37 48-38h1zm-3444-25c30 1 53 15 64 44 45 119-6 300-95 337-57 24-117 18-151-13-50-48-57-80-37-169 15-67 22-82 58-116 58-55 117-83 161-83zm-7583-162c18 1 39 27 33 46-8 26-53 29-62 5-6-17 6-46 23-51h6zm16626 458 4 1c17 2 24 11 26 31 3 23 0 27-23 27-14 0-28-7-31-15-9-23 2-44 24-44zm-6811-61c25 1 26 2 11 14-10 7-18 26-18 42 0 22-3 25-12 16-18-18-38-14-38 7 0 22-16 36-24 22-12-18 7-71 30-86 13-8 36-15 51-15zm-7755-150c21 1 31 24 15 39-15 15-22 14-37-4-15-17-5-35 20-35h2zm1470 41c11 1 22 7 33 19 14 15 16 26 8 57-7 32-13 38-38 41-17 2-36-3-43-10-18-18-15-72 6-91 12-11 23-16 34-16zm6694 221h4c67 8 9 168-61 168-19 0-28-6-33-22-11-43-6-59 31-104 27-32 42-43 59-42zm-5427-102c15 1 25 9 33 26 15 33 1 58-35 62-21 3-28-2-33-22-9-38 4-66 32-66h3zm185 52c13 0 21 15 21 42 0 31-5 40-22 47-14 5-25 3-31-4-20-26-20-46 0-66 12-13 23-20 32-19zm5975 149c3 0 9 4 16 9 21 18 19 67-6 101-20 28-31 33-56 22-7-2-13-10-13-18a658 658 0 0 1 59-114zm-5558-98c19 1 39 28 39 56 0 45-35 66-59 37-16-20-26-86-13-86 6 0 17-3 25-6l8-1zm1644 47c56 0 72 84 33 165-20 41-25 45-59 45-20 0-42-6-48-14-7-8-15-30-18-50-5-30 0-44 32-91 27-38 45-55 60-55zm-6805-117c29 1 61 11 95 30 32 18 43 33 61 82 12 33 23 68 23 77 1 10-20 47-46 83l-48 65h-50c-27-1-63-7-80-14-46-21-98-80-98-113 0-46 14-126 26-151 6-13 29-33 51-44 21-10 42-16 66-15zm2640 107c6 0 10 9 10 20s-4 20-10 20c-5 0-10-9-10-20s5-20 10-20zm-291 10c16 1 19 10 24 68 6 56 4 69-10 80-21 15-46 15-61 0-17-17-15-60 4-108 12-30 22-40 39-40h4zm-6285-56c23 2 54 50 42 81-6 15-41 21-49 8-11-19-16-69-8-81 4-6 10-9 15-8zm20953 498c12 0 18 8 25 23 11 24 7 30-62 93-40 37-85 75-99 84-34 23-84 23-104 0-20-22-21-42-4-79 19-43 58-72 97-73 19 0 58-12 85-25 31-15 50-23 62-23zm-1910-43c32 1 63 11 91 31 38 27 42 34 42 72 0 114-201 230-296 170-66-42-66-126 2-196 50-51 107-78 161-77zm-2411-28c8 1 15 4 22 11 19 19 14 53-11 76-27 26-31 26-45 10-5-7-13-23-17-36-10-33 22-63 51-61zm-5965-91c16 1 19 7 19 29 0 46-50 98-73 74-4-3-7-21-7-38 0-36 26-65 58-65h3zm-2925-46c3 0 6 2 8 5 4 5 2 12-3 15-5 4-12 2-15-3-4-5-2-12 3-15 2-2 4-2 7-2zm-2163-24c19 1 37 19 37 47 0 26-20 73-31 73-4 0-17-17-29-37-17-29-19-41-11-60 8-17 21-24 34-23zm9394 281c10 1 20 7 34 18 22 17 22 21 10 45-18 33-65 36-81 5-9-16-8-26 5-45 11-16 20-24 32-23zm2584 100c12 1 24 8 24 19 0 18-24 24-45 10-11-7-12-12-3-21 6-6 15-8 24-8zm-3684-51c6 0 14 25 18 55 6 53 5 57-24 84-17 16-31 33-31 38 0 12-65 43-90 43-11 0-24-8-29-18-6-11-5-33 3-63 12-51 31-79 52-79 8 0 14-6 14-12 1-13 65-48 87-48zM7261 8614c13 0 22 13 16 30-8 20-21 20-36 2-9-10-8-16 4-26 5-4 11-6 16-6zm9183 266c36 3 49 24 43 67-25 168-26 171-91 202-52 26-68 26-89 3-24-27-30-72-17-123 16-60 104-149 147-149h7zm-4234 41 7 1c24 3 29 9 35 48 7 37 5 47-9 58-23 16-30 15-53-8s-24-37-10-75c7-18 14-25 30-24zm-2518 74c28 0 86 41 105 78 21 42 14 144-12 163-24 17-76 18-97 2-8-7-22-24-32-38-30-46-14-179 26-203 3-2 6-2 10-2zm7929 219c5 1 10 2 14 6 20 17 19 32-6 64-29 37-49 34-49-7 0-35 21-63 41-63zm-1628-33c17 1 26 7 40 22 35 34 44 88 23 135-21 46-64 72-121 72-36 0-48-5-69-31-34-40-41-72-27-118 16-54 39-70 108-77 21-2 35-4 46-3zm-6807-86c9 1 14 11 14 31 0 30-26 32-35 3-5-13-2-25 6-30 6-3 11-5 15-4zm1551 97c5 0 10 2 14 4 6 3 24 36 41 73 26 57 29 74 25 126-7 78-11 86-52 113-46 29-67 28-93-8-14-19-25-51-28-89-6-53-3-66 25-123 17-36 31-70 31-76 0-11 20-20 37-20zm8033 233c21 1 26 30 8 72-19 43-53 58-64 28-8-21 15-84 34-94 8-4 16-6 22-6zm-2614-51c18 3 19 42-6 84-21 35-50 41-70 17-10-12-10-21-2-40 7-14 16-25 21-25 6 0 19-9 30-21s21-17 27-15zm3409 174c6 1 11 3 14 6 16 19-22 99-51 107-14 4-30 4-35 0-6-3-16-17-22-29-11-21-10-27 8-46 22-23 63-39 86-38zm-1714-26c23 2 34 17 37 48 7 68-86 120-122 68-31-43-11-90 46-109 16-5 28-7 39-7zm-5957-111c23 1 27 29 33 105 3 56 1 73-11 83-9 8-16 23-16 35 0 41-12 45-60 20-50-27-72-61-74-113-1-45 36-97 83-117 20-8 34-13 45-13zm-1738-21c8 0 14 10 14 25 0 26-24 35-32 13-7-19 2-38 18-38zm12654 361 7 3c4 3-2 6-13 5-11 0-14-3-6-6 4-2 8-2 12-2zm-4229 21h1c18 6 21 28 4 28-9 0-16-7-16-16 0-8 4-13 11-12zm-7445-139c4 0 9 0 14 2 16 5 20 14 18 33-4 37-40 42-56 8-11-25 1-44 24-43zm1908 65c3 0 11 6 21 16 41 41 28 113-16 85-11-7-11-9 4-9 21 0 22-16 2-54-14-26-17-39-11-38zm5519 145 9 3c7 5 4 12-7 21-24 17-35 17-35-1 0-13 18-24 33-23zm-3715-19c14-1 29 8 44 25 40 45 34 81-18 109-16 9-26 8-42-4-37-25-44-49-28-88 12-28 27-42 44-42zm2319 156c12 0 11 5-7 30-22 31-40 39-40 18 1-21 26-48 44-48h3zm2506 93 4 1c13 13-25 61-47 59-15-2-20 3-20 22 0 16-6 25-15 25-8 0-15-4-15-9s6-12 13-14c7-3 4-6-6-6-34-2-13-35 36-60 21-10 41-18 50-18zm-2401 15c16 0 31 7 35 19 7 17-24 53-47 53-9 0-21-5-28-12-16-16-15-28 3-48 8-9 23-13 37-12zm-670-14c4 0 6 3 9 7 12 19 11 43-2 73-12 25-39 43-39 26 0-5 5-12 10-15 19-12 10-33-17-42l-26-9 32-23c17-12 26-18 33-17zm8130 186c12 1 18 8 18 19 0 28-17 35-29 12-15-27-14-31 9-31h2zm293 20c19 1 35 22 35 45 0 46-55 63-66 21-7-27 10-66 29-66h2zm-11385-198h1c6 2 11 8 11 13s-5 11-11 13-11-4-11-13c0-8 4-14 10-13zm-5831-123c24 1 46 22 66 62 27 52 31 80 15 109-15 28-41 38-79 29-46-10-78-46-86-96-6-39-4-46 23-73 22-22 42-32 61-31zm8689 202c2 0 3 5 7 15 5 16 13 20 31 16 17-3 24 0 24 12 0 19-29 21-54 3-11-8-16-21-13-33l5-13zm-4680 4 26 24c24 22 24 25 10 52-15 30-42 37-62 17-17-17-15-42 7-69zm6849 185c9 0 13 8 11 22-3 22-27 35-41 22-10-10 12-44 29-44h1zm-8798-182c13 0 29 2 52 7 33 7 65 17 72 23s34 16 60 23c31 7 60 24 80 44 70 71 105 116 111 140 10 39 73 133 94 139 20 7 42 46 42 74 0 39-206 289-261 318-16 8-49 16-73 18-25 3-54 9-65 15-41 22-94 12-203-41-80-38-110-58-118-77-6-14-23-46-37-71s-30-65-34-90-13-65-19-90c-24-95 15-228 88-298 70-67 127-112 142-112 8-1 26-7 39-14 9-5 18-8 30-8zm5484 165c5 1 9 4 15 10 20 20 34 109 18 119-18 12-50 9-71-5-23-17-14-78 17-109 10-10 16-15 21-15zm3218 105c9 1 21 8 39 22 33 27 34 28 17 54-21 31-52 33-89 5-20-15-28-30-28-51 0-23 4-29 16-24 8 3 23 2 32-3 4-2 8-3 13-3zm-2951-43 26 29c20 23 25 36 20 59-3 17-11 36-17 44-14 16-51 17-67 1-21-21-14-75 13-105zm-11551-205c9 1 11 6 7 16-3 9-6 20-6 25s-4 9-10 9c-5 0-10-11-10-25 0-16 6-25 16-25h3zm15716 353 4 1c8 5 8 13 1 27-12 21-25 25-36 8-7-13 16-38 31-36zm-4358-93c7 1 13 11 13 25 0 28-24 34-34 9-8-20 1-34 20-34h1zm-390 50c24 1 43 47 20 81l-15 21-21-21c-25-25-26-40-7-67 8-10 15-14 23-14zm5472 186c13 0 21 7 21 18 0 20-12 27-27 15-10-9-13-7-13 9 0 11 5 22 11 24 13 4 3 48-10 48-5 0-14-13-21-30-7-18-20-30-31-30-35 0-28-17 16-38 22-11 41-16 54-16zm4209 98 2 1c6 3 10 10 10 16 0 5-4 9-10 9-5 0-10-7-10-16 0-7 4-11 8-10zm-8818-152c3 0 8 5 15 12 17 16 20 47 6 62-5 5-11 25-14 44l-4 35-1-32c-1-18-7-33-13-33-7 0-8-7-4-17 5-10 9-29 11-43l3-28h1zm-6699-150h6c35 4 45 45 17 65-25 18-33 16-46-11-15-34-5-55 23-54zm3764 87c15 2 30 17 44 46 27 57 26 61-5 102-26 35-50 41-76 21-39-31-38-58 2-140 10-21 22-30 35-29zm7429 204 6 2c5 3 10 12 10 19 0 8 6 14 13 13 30-1 47 4 47 13 0 16-66 12-80-5-12-15-8-42 4-42zm-4610 25 3 5c2 9 2 23 0 30-3 6-5-1-5-18 0-11 1-17 2-17zm69 10h7c35 5 38 11 16 28-30 21-48 18-44-8 2-16 7-21 21-20zm8176 185c6-1 12 4 21 12 26 23 25 33-5 78-28 40-58 48-74 20-10-19 15-79 43-103 6-5 11-7 15-7zm-13697-213c11 1 18 6 18 10 0 6-6 10-14 10s-18-4-21-10c-3-5 3-10 14-10h3zm992 30c13 0 26 29 26 58 0 17-35 15-49-2-15-18 2-56 23-56zm5298 206c5 0 3 5-2 15-11 20-54 27-48 7 3-7 16-15 31-19 10-2 16-4 19-3zm-4703-106c24 2 43 36 39 81-2 28-7 34-28 36-14 1-31-1-37-3-17-7-17-86-1-102 9-9 18-12 27-12zm4779 191c9 0 15 5 28 15 27 20 54 81 54 123 0 33-45 96-85 121-36 22-52 24-78 9-48-28-63-138-27-197 11-18 40-42 65-54 23-11 34-17 43-17zm-3088-59h1c6 2 11 8 11 13s-5 11-11 13-11-4-11-13c0-8 4-14 10-13zm-4455-91 8 1c12 2 22 10 22 18s-10 16-22 18c-18 3-23-2-23-18 0-13 4-19 15-19zm4942 113c6 1 12 5 22 15 26 26 27 63 3 84-23 21-46 22-61 3-19-22-9-77 16-93 9-6 15-9 20-9zm-4031-24c18 0 118 63 130 81 34 55 16 137-35 163-38 20-39 20-76-3-67-40-90-119-57-195 13-29 27-46 38-46zm-1231 33c4 0 5 3 2 11s0 19 7 25 11 22 8 36c-5 30-37 34-52 6-7-14-7-27 1-45 9-19 27-34 34-33zm7296 167c16 1 19 7 19 43s-5 47-30 65c-33 25-60 28-78 10-7-7-12-20-12-31 0-25 70-87 98-87h3zm-632 69c18 0 31 23 31 63 0 19 8 36 22 48 18 15 20 20 10 33-16 19-62 28-63 13v-23c1-7-5-13-13-13-44 0-56-61-19-102 12-13 23-19 32-19zm-8418-138c16 0 36 10 54 29 22 23 30 40 30 69 0 74-53 95-99 40-26-31-28-54-9-121 3-12 12-18 24-17zm1022 29c37 3 99 56 117 100 10 25 10 34-4 55-19 29-17 29-80 7-43-15-51-22-63-57-8-22-11-55-8-72 5-28 10-33 35-33h3zm3981 92c10 1 21 6 42 16 40 20 44 25 44 59 0 21-9 53-20 71-16 26-26 32-53 32-22 0-40-8-54-22-11-13-23-31-26-40-10-28 12-87 39-105 12-7 19-11 28-11zm-1648 8c30 1 56 38 34 77-21 36-54 46-74 24s-20-50 0-79c12-17 26-23 40-22zm935 43c26 2 42 20 42 51 0 60-68 88-99 41-23-36-4-81 38-90l19-2zm4492 125c14 1 27 8 34 22s13 38 13 53c0 38-37 107-57 107-9 0-35 10-59 22-31 15-47 30-54 53-19 57-80 71-129 29-42-35-58-96-37-141 18-38 66-71 116-79 68-10 79-14 107-38 24-20 47-29 66-28zm-2626-17c12 0 23 4 31 11 16 16 15 73 0 85-22 17-64 23-76 11-18-18-15-79 6-94 11-9 26-14 39-13zm3958 149c8 1 15 5 15 10 0 12-1 12-20 0-13-8-12-10 3-10h2zm-2891-5c4 0 8 0 12 2 17 6 19 62 2 98-9 20-18 25-49 25-33 0-40-4-45-25-11-43 40-102 80-100zm-5879-44c18 1 27 17 36 58 7 31 5 50-5 76-22 51-50 47-78-9-27-57-17-106 25-120 8-3 16-5 22-5zm1154 51c16 2 34 26 28 42-7 16-28 21-40 9-11-10-8-41 4-49l8-2zm8931 274 8 1c36 9 27 33-13 33-19 0-35-4-35-9 0-15 20-27 40-25zm7196 164c8 0 14 4 14 9s-7 11-15 15c-9 3-15 0-15-9a15 15 0 0 1 16-15zm-11640-240c7 0 14 7 14 15s-7 15-15 15-15-7-15-15a15 15 0 0 1 16-15zm302 31c19 1 34 20 42 55 7 31 5 46-10 77-11 21-20 47-20 58 0 34-19 59-45 59-13 0-27-5-30-10-3-6-1-26 6-45 10-27 10-38 1-47-7-7-12-33-12-58 0-36 5-52 23-68 17-16 32-23 45-21zm-5351-109h2c9 2 18 14 19 28 2 14 11 33 19 42 9 10 13 24 10 33-7 17-13 18-44 3-27-13-31-24-25-71 3-26 7-36 19-35zm4468 109c24 2 45 25 45 60 0 54-26 75-67 57-27-13-37-75-15-100 11-13 24-18 37-17zm-103 19c5 1 8 5 8 10 0 6-4 10-10 10-5 0-10-4-10-10 0-5 5-10 10-10h2zm-1484-20c8 1 12 9 10 22-3 22-27 35-41 22-10-10 12-44 29-44h2zm-2508-40c9 0 32 10 50 23 30 20 43 44 70 130 11 34-4 125-24 145-22 22-117 26-147 6-45-29-61-66-53-126 11-83 66-178 104-178zm3018 118 36 24c37 24 49 50 61 124 6 37 3 46-25 78-39 44-75 47-119 10-29-24-31-30-31-93 0-65 1-68 39-105zm220 66 7 2c8 4 12 10 9 15-6 11-18 12-27 3s-1-20 11-20zm12149 296c9 0 18 2 27 6 26 10 19 49-9 62-42 19-64 15-71-13-9-35 16-58 53-55zm-10650-192 15 1c41 2 71 50 69 113-2 115-40 168-118 168-38 0-50-5-79-34-43-43-44-78-5-161 37-78 48-89 118-87zm-1497 43c7 1 12 2 17 5 8 5 26 31 41 57l26 48-40 39c-28 27-51 40-81 45-38 6-43 4-60-21-9-15-18-45-18-67 0-31 7-45 33-68 28-25 60-39 82-38zm-2646-45c18 1 34 15 44 43 6 16 23 37 39 47 44 27 53 44 53 96 0 39-6 54-31 83-39 44-77 47-113 8-16-17-27-44-31-73-3-25-12-63-19-86-12-35-12-45 0-70 16-33 38-49 58-48zm4750 126c12 0 21 7 30 20 17 24 21 85 7 107s-89 31-108 13c-24-24-11-90 24-118 19-15 34-23 47-22zm-6021-121c12 0 21 8 28 23 16 35 3 73-31 91-29 15-30 15-45-14-20-40-19-54 8-79 15-15 29-22 40-21zm5028 181h2c29 4 56 56 36 69-23 15-48 10-59-11-15-29-4-60 21-58zm-3342 0c8 1 16 10 25 27 25 48-6 94-56 83-22-4-22-7-2-65 11-32 22-47 33-45zm627 69c68 3 102 21 227 101 23 15 56 28 73 28 66 0 125 40 187 125 22 31 27 49 27 96 0 104-34 139-136 139-54 0-59 2-121 55-67 57-125 82-218 92-43 4-56 1-90-22-47-32-115-95-115-108 0-4-13-28-30-52-22-33-30-55-30-89 0-24-5-57-11-73-7-20-7-45 3-93 24-122 102-199 203-199h31zm1936 64 3 1c9 4 15 19 15 40 0 30-3 34-25 34-19 0-25-5-25-21 0-29 16-56 32-54zm6712 199c4 0 6 2 6 5 0 5-7 14-15 21-12 10-15 10-15-3 0-8 7-17 15-21l9-2zm-4780-104c19 1 36 41 26 95-6 33-36 45-58 23-15-15-15-28 1-79 8-28 20-39 31-39zm947 45c7 0 15 1 22 4 53 21 71 98 41 184-23 69-88 96-152 64-13-6-32-28-43-49-17-33-18-44-8-81 18-68 85-124 140-122zm1704 95c31 1 58 20 58 53 0 62-76 117-121 88-8-4-16-26-19-47-4-32 0-44 21-66 17-19 40-28 61-28zm-2183-20 9 7c16 16 7 47-15 51-16 3-18 0-12-24 7-26 11-35 18-34zm2380 71c7 1 8 7 6 21-2 12-11 24-21 26-14 3-18-1-15-20 2-12 11-24 21-26l9-1zm-5996-55c15 1 24 10 34 29 10 20 11 33 2 64-7 21-12 72-12 112 0 123-53 190-105 133-13-14-27-40-30-57-4-18-16-54-28-80-17-41-18-53-8-85 15-50 47-84 99-104 22-8 37-12 48-12zm3321 115c18 0 31 18 47 52 28 59 27 112-2 181a91 91 0 0 1-57 56c-80 34-79 34-115-16-23-32-34-60-37-92-3-45-3-46 68-114 48-46 76-68 96-67zm4224 103c22 2 19 24-12 63-9 13-20 39-23 58-10 50-59 71-98 41-46-34-4-111 78-147 25-11 44-15 55-15zm-6174-112c5 0 11 2 17 5 18 10 3 33-31 52-21 11-23 10-23-18 0-25 16-41 37-39zm4155 125c6 0 12 2 17 7 12 12 12 18 1 30-17 21-36 20-44-1-7-19 9-37 26-36zm1201 86c7 1 10 12 10 33 0 39-39 58-62 31-8-10-4-20 19-42 16-15 26-22 33-22zm-12169-240c2 0 6 3 11 7 8 7 15 14 15 16s-7 4-15 4-15-7-15-16c0-8 1-11 4-11zm13515 320c17 0 31 9 31 28 0 23-29 37-40 19-13-22-20 5-10 41 16 54 13 59-28 59-21 0-42-3-45-7-14-13-6-40 17-62 13-13 27-33 30-46 5-22 26-33 45-32zm-4973-98c8 0 15 2 21 4 24 11 25 14 19 63-9 66-30 101-76 127-48 27-61 26-94-4-33-31-37-99-6-138 24-30 93-55 136-52zm-2659-55c7 1 13 7 13 15s-7 15-15 15-15-7-15-15 7-15 15-15h2zm4632 112c27 1 51 22 51 50 0 40-64 64-90 33-16-19-3-73 19-80 7-2 13-3 20-3zm-4335-93c6 1 12 3 18 9 14 14-12 62-34 62-16 0-19-6-16-32 2-24 17-40 32-39zm4133 101c18 1 17 36-3 44-21 8-22 8-29-4-8-13 13-40 31-40h1zm-2081-45 11 2c15 5 5 33-12 33-7 0-15-6-18-14-5-12 5-22 19-21zm4329 99c9 1 17 4 23 10 20 19-39 76-79 76-16 0-29-2-29-4l11-34c10-29 46-49 74-48zm125 96c10 1 9 4 0 15-7 8-16 15-21 15s-6-7-3-15c4-8 13-15 21-15h3zm-3084-69c10 1 18 7 24 18 20 38 12 78-19 100-35 26-44 26-63 4-32-37-32-62 2-93 22-21 41-30 56-29zm1803 63c26 0 34 33 19 84-11 38-19 48-50 60-21 8-38 19-38 24 0 4-4 8-10 8-5 0-10-3-10-8 0-4-10-12-22-17-13-6-24-20-26-32-4-26 52-93 78-93 10 0 20-4 22-9 2-4 13-11 25-15l12-2zm900 34c5 1 10 3 16 8 10 8 13 14 7 14-7 0-12 7-12 15s-16 22-36 30c-43 18-60 19-69 5-9-15 10-35 54-58 20-11 31-15 40-14zm-4793-105c16 0 34 11 39 27 10 32-4 43-45 36-28-4-39-2-44 9-8 22-34 18-42-7-7-23 16-48 46-48 9 0 21-5 27-11 5-5 11-7 19-6zm1071 27c30 2 50 27 36 48-13 22-35 26-51 10-6-6-12-22-12-35 0-18 6-23 24-23h3zm1910 55 12 1c76 12 85 33 69 169-6 48-66 146-99 162-68 33-143 42-185 22-28-14-54-60-54-97s29-104 70-160c39-54 128-99 187-97zm-2259-45c15 1 26 10 32 26 16 42 12 64-19 95-35 35-74 38-95 7-24-34-19-61 17-96 24-23 47-34 65-32zm-591 35c5 0 12 4 21 11 30 20 52 77 52 129 0 35-5 48-26 64-15 12-41 21-60 21-30 0-33-3-47-47l-27-89c-15-49-8-64 27-64 15 0 34-7 43-15 7-6 12-10 17-10zm4490 117h5c17 2 24 10 26 33 1 17-1 35-5 41-12 18-46 24-65 13-40-22-7-90 39-87zm-446-10c15 1 9 13-16 41-27 28-49 34-60 17-9-14 4-50 18-51l40-5 18-2zm-4691-102c5 0 7 7 4 15-4 8-8 15-10 15s-4-7-4-15 4-15 10-15zm1672 50c5 1 8 5 8 10 0 6-7 10-16 10-8 0-12-4-9-10 3-5 10-10 16-10h1zm1122 34c4 0 8 4 15 10 10 9 28 39 42 67l23 51-27 22c-15 12-27 27-27 33 0 12-39 44-50 42l-32-6c-77-12-76-141 2-173 17-7 35-21 41-32 6-10 9-15 13-14zm1101 29 24 2c65 8 93 25 122 72 19 30 21 44 15 106-7 72-26 117-50 117-19 0-40 29-60 83-20 55-55 82-72 56-3-6-36-30-73-54-80-51-111-103-111-183 0-65 10-90 51-130 46-45 98-69 154-69zm-1893-38c20 1 40 12 67 34l33 27-11 55c-16 76-46 132-78 147-34 15-32 16-70-8-39-24-63-67-52-95 4-11 8-35 8-53 1-45 14-66 55-91 18-11 33-17 48-16zm-415 8c17 0 33 11 33 31 0 42-45 62-70 31-6-8-9-23-5-34 6-20 25-29 42-28zm-4603-80c3 0 6 3 11 7 8 7 15 14 15 16s-7 4-15 4-15-7-15-16c0-8 1-12 4-11zm2450 168c8 0 17 4 29 10 29 16 37 28 37 64 0 47-25 75-66 75-28 0-36-5-44-26-16-40-12-82 10-104 14-14 23-20 34-19zm2070 60c12 1 24 8 36 21 31 34 27 92-9 129-35 34-72 38-101 9-32-32-26-78 15-122 23-26 42-38 59-37zm5698 149c4 1 8 10 8 20 0 11 7 23 15 26 22 9 18 24-5 24-12 0-24-9-29-22-9-25-4-48 10-48h1zm-2485 2c50 2 54 26 47 107-7 84-24 113-81 137-51 22-100 18-128-11-14-13-25-30-25-37 0-6-14-26-30-43-28-29-29-34-19-64 16-45 87-79 182-87 22-2 40-3 54-2zm-3845-62c24 2 34 26 18 45-14 16-23 19-33 8-4-3-7-17-7-30 0-16 6-23 20-23h2zm256 72c18 1 30 18 35 49 7 52 2 63-29 78-28 13-48 14-57 4-4-3-7-28-7-54 0-40 4-51 25-65 13-8 24-12 33-12zm2080 110c24 1 48 8 70 23 44 30 54 31 77 5 28-31 50-25 69 19 15 31 16 43 6 61-14 26-75 53-104 46-24-6-45 8-69 45-17 25-72 49-116 49-13 0-32-15-51-42-35-48-36-61-11-122 24-55 76-86 129-84zm-5808-122c10 1 9 4 0 15-7 8-14 15-16 15s-4-7-4-15 7-15 16-15h4zm2899 109c9 0 19 9 42 31 41 40 46 58 27 93-18 34-34 47-67 53-26 5-32 2-42-19-17-38-3-133 23-151 7-5 12-8 17-7zm4179 116 9 2c9 4 10 10 2 24-13 25-39 25-39 0 0-17 12-27 28-26zm4385 108c35 2 47 18 47 58 0 89-107 143-165 84a77 77 0 0 1-25-59c0-46 33-72 107-81 14-2 26-2 36-2zm-9172-201c5 0 9 4 16 11 14 13 14 20 3 46-14 34-53 43-64 15-11-29-6-43 20-60 12-8 19-13 25-12zm4451 112c7 1 13 10 13 26s-6 26-18 28c-15 3-18-2-15-25 2-20 12-30 20-29zm-2102-38 22 2c31 5 36 22 12 46-20 20-43 20-49 1l-9-29c-5-14 3-20 24-20zm-4569-76c89 4 142 61 123 137-11 45-49 74-105 80-38 4-49 0-78-24-30-25-34-35-34-74 0-24 7-61 16-81 16-37 17-38 69-38h9zm5497 160c28 2 39 18 47 62 6 34 4 41-25 68-38 36-73 38-94 8-37-53 4-138 66-138h6zm-4853-90c32 0 52 29 58 86 6 55 36 121 67 149 24 22 25 50 4 101-9 22-13 50-10 67 3 16 1 37-4 48-21 38-100 63-158 49-38-9-70-46-95-110-21-55-16-86 27-142 53-69 66-102 66-166 0-62 11-82 45-82zm263 62h5c19 3 67 59 67 79 0 4-12 21-26 38-29 35-63 40-87 13-36-39-4-131 41-130zm-365-2c10 1 17 5 17 14 0 43-27 59-50 31-10-12-10-18 0-30 8-10 22-15 33-15zm2956 75c3 0 8 3 16 9 22 16 10 41-14 27-7-5-11-16-9-25 2-8 3-12 7-11zm-2145 25c10 0 16 9 16 25 0 14 5 34 12 45 9 13 9 27 2 47-12 36-37 40-54 8-11-21-11-27 2-42 10-12 14-29 11-50-4-26-2-33 11-33zm6987 170c31 1 26 43-8 60-40 20-40 20-47 13-3-3-6-17-6-29 0-25 26-44 59-44h2zm-2248-50c21 1 22 6 2 13-8 4-17 2-20-3-4-6 3-10 14-10h4zm2743 82 8 1c21 8 20 29-5 86-17 40-26 50-58 60-52 15-58 14-75-11-21-30-21-32 14-71 30-34 89-66 116-65zm-9767-212c40 1 71 53 71 119 0 48-14 61-67 61-36 0-44-4-56-27-31-62-30-83 4-119 18-19 40-34 48-34zm12303 280c4 1 6 5 3 10-3 6-8 10-11 10-2 0-4-4-4-10 0-5 5-10 11-10h1zm-6101-79 4 1c12 2 11 10-3 42-17 37-18 38-35 22-9-10-17-24-17-31 0-16 31-35 51-34zm-10944-240c20 1 27 8 42 35 31 52 22 84-23 84-19 0-42-7-50-16-18-18-29-54-24-81 2-13 14-19 39-21l16-1zm10408 237c17 0 30 4 36 13 16 26 9 52-36 130-52 88-79 105-149 95-40-6-48-4-67 18a71 71 0 0 1-90 16c-25-15-32-58-14-86 8-13 36-34 60-45 25-12 45-25 45-29 0-5 9-12 20-15s20-12 20-20c0-37 113-80 175-77zm2514 62c36 2 35 50-3 68-14 6-28 6-39 0-35-19-7-67 40-68h2zm-4452-82c64 4 97 90 41 142-32 30-71 26-102-11-44-52-29-111 32-128 10-3 20-4 29-3zm-1647-26c8 0 14 6 25 18 14 15 16 29 10 65-6 41-11 48-40 61-43 18-41 18-65-6a79 79 0 0 1-20-53c0-28 7-38 41-60 26-17 39-25 49-25zm10607 250h6c43 4 49 43 13 77-33 31-113 42-122 17-16-43 44-96 103-94zm-6482-121c5 1 8 7 15 19 18 34-18 78-43 53-13-13-7-61 9-67 10-4 15-6 19-5zm-9044-200c3 1 6 2 10 6 7 7 7 13 1 17-6 3-14 1-17-5-7-11-2-19 6-18zm9228 250c18 0 25 6 35 20 22 32 20 55-9 117-20 43-32 56-67 72-55 25-85 25-98 1-5-11-10-45-10-75 0-50 4-61 33-92 28-31 42-37 84-41 14-2 24-2 32-2zm5189 133c15 0 25 4 28 11 21 55-107 126-145 81-17-20 5-62 38-75 31-11 59-17 79-17zm-2206 0c4 0 7 0 10 2 12 8-22 33-44 34-11 0-15-5-12-14 5-13 30-23 46-22zm-3535-33c19 1 32 13 48 39 14 22 30 40 35 40s14 9 20 20c11 21-13 81-64 155-26 37-30 40-82 42-48 2-56-1-69-22l-30-50c-20-33-19-62 5-92 11-14 20-35 20-47 0-30 10-41 57-65 27-13 45-20 60-20zm-1334-28c10 1 19 5 28 13 25 22 24 36-4 62-26 24-43 27-68 10-13-9-14-17-6-44 8-28 29-43 50-41zm-2004-22c8 0 14 7 26 21 16 18 22 35 18 50-13 51-40 61-73 28-29-29-26-73 6-91 11-6 17-9 23-8zm1129 29c10 1 12 9 7 33-4 17-9 35-12 40-8 14-42 7-52-12-12-21-5-31 21-31 10 0 18-7 18-15s7-15 16-15h2zm9499 224c10 0 20 3 27 9 15 11 17 17 7 35-6 12-25 29-41 37-16 9-37 27-46 40-10 16-35 30-67 40-67 20-74 19-103-10-27-27-26-54 5-89 25-29 92-56 136-55a307 307 0 0 0 82-7zm-7591-150c7 0 13 5 23 15 12 12 21 31 21 44 0 12 9 30 20 40 27 23 28 97 2 120-22 20-71 22-96 4-14-10-18-26-17-63 3-123 6-136 28-151 8-6 14-9 19-9zm5221 127c7 0 13 5 17 15 10 25-10 45-27 27-4-3-7-15-7-25 0-12 8-18 17-17zm-12677-279c22 2 41 17 59 45 48 75 43 152-11 167-28 7-26 7-65-10-44-19-63-51-66-113-2-50-1-53 33-73 19-11 36-17 50-16zm5788 138c7 1 10 5 7 10-3 6-10 10-16 10-5 0-9-4-9-10 0-5 7-10 16-10h2zm-5257-100c5 1 9 7 9 15s-4 15-10 15c-5 0-10-7-10-15s5-15 10-15h1zm5300 121c3 0 5 3 8 8 5 8 7 20 4 28-6 16-29 17-39 2-3-6 1-18 10-27 8-8 13-12 17-11zm8491 211c13-1 25 5 41 18 14 11 34 20 45 20 55 0 20 66-51 98-70 30-112 29-133-3-24-37-5-85 45-113 24-13 39-20 53-20zm-10332-229c12 1 20 3 20 7 0 13-24 28-37 23-23-8-14-30 12-30h5zm628 19c12 1 23 5 29 14 35 47-18 146-63 116-25-16-34-49-19-68 8-11 15-27 15-36 0-17 20-27 38-26zm7030 158c30 2 36 7 44 26 9 20 9 34-3 67-17 45-40 61-134 91-62 20-70 20-89 0-28-28-19-61 22-83 13-7 31-29 39-49 20-48 27-52 96-52h25zm-3220-60c10 0 21 3 30 9 11 7 9 13-9 30-26 24-67 28-75 6-10-25 22-46 54-45zm-1201 23c28 1 43 12 63 42 23 36 13 69-38 117-68 64-91 70-140 36-39-28-48-55-32-102 15-48 59-82 114-90l33-3zm3651 89c23 1 29 28 6 63-19 29-38 37-53 22-19-19-12-56 14-73 13-8 24-12 33-12zm-204 1 6 2c9 6 34 45 28 45-2 0-11-7-20-14-17-12-24-35-14-33zm-6250-87c11 0 22 9 46 32 90 86 94 212 7 212-14 0-29 5-32 10-13 22-46 9-70-28-38-57-41-92-15-156 15-34 32-58 47-65 7-3 12-5 17-5zm-572 4c18 1 28 18 21 38-3 6-13 12-23 12s-20-6-22-12c-8-21 2-38 22-38h2zm2849 143c14 1 23 16 13 43-11 33-52 51-61 28-3-8 0-26 7-39 12-23 29-33 41-32zm3811 99c3 1 6 1 8 3 11 7 4 25-10 25-5 0-11-4-15-9-6-10 6-20 17-19zm234 11c3 0 4 5 4 15 0 24-5 28-16 11-3-6-1-16 5-22 3-3 5-4 7-4zm-4299-87 6 3c11 11 0 51-14 51-5 0-12-7-15-15-7-17 10-41 23-39zm-2335-42c19 2 27 19 32 55 8 59 3 72-33 94-41 24-66 21-91-10a86 86 0 0 1-18-62c3-32 8-38 51-59 27-13 46-19 59-18zm4038 117c39 0 65 6 120 24 136 44 190 121 190 271 0 64-4 80-40 151-24 46-43 100-47 130-5 49-4 53 30 85 52 49 59 70 56 162l-4 81 33-2 64-5c38-3 50 22 25 50-8 9-20 35-26 57-17 63-33 79-83 82-23 1-58 5-76 8-58 13-122-47-122-114 0-21-9-35-37-54-42-30-53-27-53 12 0 21-15 45-59 90-33 34-68 80-78 101-18 39-36 50-48 30-3-5-21-17-39-25-25-12-38-28-51-61-16-41-16-47-1-69 11-17 29-27 59-32 33-5 51-16 84-52 47-51 51-65 27-100-16-22-20-23-100-17-78 7-83 6-98-15-11-16-14-35-10-59 7-40-13-89-44-112-33-24-61-92-78-193-18-109-26-125-58-125-55 0-61-65-14-149 17-31 36-59 42-63s35-8 65-8c32 0 68-7 90-19a664 664 0 0 1 281-60zm-2376-51c9 0 7 2-4 10-13 9-11 14 12 34 22 20 25 29 19 56-3 18-15 38-26 44s-24 17-28 24c-13 20-34 13-41-14-9-36 2-84 20-84 9 0 13-4 10-9-9-14 18-61 34-61h4zm-848 13c30 0 54 24 54 56 0 15-11 43-25 64-33 47-73 51-105 10-39-50-8-113 63-129l13-1zm7064 159c15 0 24 5 34 17 18 19 18 24 4 68-11 35-23 51-49 65-49 26-97 24-110-6-16-34 0-95 32-118a158 158 0 0 1 89-26zm-6608-138c5 0 9 3 14 7 43 36 36 90-19 147-39 40-58 40-91 1-27-32-27-41-4-101 7-19 18-28 32-28 12 0 32-7 44-16 11-7 18-10 24-10zm929 53c14 1 28 8 55 20 39 18 65 23 87 19 98-18 107-18 133-1 25 16 26 20 19 73-7 63-7 82 1 223 5 86 3 100-15 130-12 19-21 37-21 40s25 31 56 62c54 54 56 59 49 94-3 21-15 53-26 71-24 42-24 48 1 55 16 4 20 14 20 47 0 23-5 50-10 61-12 22-59 26-78 7-18-18-15-42 9-72 27-34 18-48-22-34-25 8-38 7-65-6-56-26-71-100-33-170l20-38-48 8c-80 15-187 8-232-16-62-31-106-81-121-136-8-27-19-60-26-72-13-26-6-67 20-104 9-12 16-32 16-43 0-12 13-39 30-61 16-21 30-43 30-48 1-25 64-86 105-100 22-7 33-11 46-9zm4370 103c13 1 11 44-3 58-7 7-22 12-35 12-17 0-23-6-23-23 0-22 32-47 60-47h1zm-1298-20c9 0 113 38 126 47 2 1-1 15-7 31-8 25-7 33 11 51s20 24 9 39c-7 9-17 28-23 42l-21 45c-5 11-37 32-71 48-67 29-71 30-103 17-12-4-31-21-42-37l-42-49-21-20 52-55c29-30 67-78 86-106 18-29 39-53 46-53zm662 70c20 0 19 36-1 44-19 7-19 7-27 0-10-10 12-44 28-44zm2403 77c108 2 149 20 176 80 24 54 23 71-7 133-36 75-54 95-112 125-51 25-73 28-155 16-59-8-65-13-100-74-23-41-30-64-30-108 0-49 4-62 33-97 50-64 86-77 195-75zm-3252-67c8 1 14 7 14 15s-7 15-15 15-15-7-15-15 7-15 15-15h1zm-7123-110c26 1 56 23 65 48 21 61-47 100-82 46-14-21-15-31-6-60 6-18 15-34 20-34h3zm4797 114c15 0 31 5 48 15 27 18 32 26 32 60 0 73-67 105-125 59-24-19-27-26-22-65 6-52 12-61 52-68 5-1 10-2 15-1zm4245 97c24 1 19 33-11 47-24 12-25 11-22-15 2-20 9-29 26-31l7-1zm-7947-177 2 1c6 4 8 11 5 16-9 14-15 11-15-7 0-7 4-11 8-10zm1072 96c16 0 41 45 38 68-4 36-51 44-68 12-9-16-7-27 7-50 9-17 20-30 23-30zm-3734-29c12 0 22 11 38 36 19 28 23 41 15 55-11 21-68 25-87 6-20-20-15-76 7-88 12-6 20-9 27-9zm3187 82 10 3c21 8 22 28 3 43-12 10-17 8-26-9-12-22-4-38 13-37zm3647 88c11 1 20 3 27 7 6 4 13 25 15 46 3 36 0 41-42 72-48 35-62 38-97 24-25-10-38-48-29-84 8-33 80-66 126-65zm-6249-125 11 2c21 5 32 50 17 68-15 19-21 18-42-6-29-34-19-66 14-64zm2806 77c18 1 24 18 9 41-16 25-29 29-44 14-19-19-14-37 14-50 8-4 16-5 21-5zm5045 127c10 0 18 3 21 8 3 4-3 21-12 38-15 27-19 29-49 22-31-8-46-38-18-38 8 0 16-7 20-15 3-9 22-15 38-15zm-6137-106c2 0 5 2 10 6 8 7 15 19 15 26 0 15-12 19-23 7-4-3-7-15-7-26 0-10 1-14 5-13zm2617 76c5 1 8 5 8 10 0 6-4 10-10 10-5 0-10-4-10-10 0-5 5-10 10-10h2zm1525 60c7 0 11 5 8 10-3 6-10 10-16 10-5 0-9-4-9-10 0-5 7-10 16-10h1zm6507 153 6 2c15 9 12 32-6 39-21 8-21 8-27-8-6-15 12-34 27-33zm-8037-178c7 0 12 4 22 14 17 17 18 21 4 40-8 12-13 36-12 54 2 17-1 44-5 60-6 18-4 34 6 50 13 20 13 25-4 52-35 59-10 91 31 39 14-18 18-34 15-54-7-32 20-80 43-80 20 0 80 36 118 70 17 15 44 32 60 37 31 10 42 31 80 153 16 54 16 58-6 133-13 45-30 82-39 87-10 5-46 12-81 15-50 5-68 3-84-9-11-8-29-16-40-16-86-1-116-39-122-150-4-98-10-113-36-105-12 4-45 11-73 17-60 11-108-6-119-44-4-13-14-31-22-40-11-13-14-33-11-77 4-52 9-65 43-103 40-45 88-77 116-78 9 0 22-7 30-16 7-8 30-24 51-35 19-9 28-14 35-14zm204 7c18 1 35 11 47 30 15 25 15 28-3 47-18 21-83 30-98 14-14-13-6-54 14-74 12-12 26-17 40-17zm3266 98c7 1 11 5 8 10-3 6-8 10-10 10s-7-4-10-10c-3-5 1-10 10-10h2zm-4132-10c8 1 15 4 22 11 9 9 8 19-3 40-16 33-39 37-52 12-17-32 7-65 33-63zm5303 122h4c29 3 33 7 36 33 2 23-7 41-39 78-45 51-54 55-87 31-16-11-22-25-22-53 0-33 5-42 39-65 26-19 46-25 69-24zm-3194-2c19 1 21 21 4 38-16 16-48 15-48-1 0-19 21-37 42-37h2zm312 12c9 0 17 6 31 20 15 15 29 43 32 65l6 38 73 5c80 5 102 20 102 69 0 42 13 55 40 41 26-14 44-2 34 24-5 14-14 17-41 13-29-5-35-2-47 21-39 74-133 116-194 85-54-27-66-53-59-135 5-55 2-83-12-123-22-63-17-103 16-118 7-3 13-5 19-5zm-7688-151c14 0 27 10 27 24 0 25-28 31-45 10-9-11-10-19-3-26 6-6 13-8 21-8zm7836 179c12 1 16 9 16 25 0 24-18 34-33 18-15-15-7-43 13-43h4zm-1265 24 13 2c11 3 25 20 33 36 21 51 1 100-62 158-56 51-86 62-97 34-11-29-6-56 15-82 13-17 18-34 14-50-11-44 40-99 84-98zm-3034-53c8 0 18 4 31 14 10 8 31 15 45 15 35 0 50 20 56 73 4 36 1 48-22 75-28 33-73 62-97 62-7 0-25-8-40-18-16-9-28-25-28-35s-7-29-16-42c-16-24-15-27 10-59 14-19 30-46 36-60 6-16 14-25 25-25zm4711 115c10 1 17 12 11 28-7 17-32 21-42 7-3-5 2-17 11-26 7-7 14-10 20-9zm7273 194c26 2 36 17 21 35-14 17-29 19-49 6-21-13-5-41 23-41h5zm-7495-158c16 1 36 11 36 23 0 15-26 45-39 45-4 0-11-3-14-7-11-10-8-51 3-58 4-2 9-3 14-3zm-4278-89c5 0 11 2 19 5 29 13 32 38 9 70-18 27-36 28-57 4s-21-31 4-61c11-13 17-19 25-18zm4899 117c-27 0-39 14-31 35 6 16 34 19 54 7 19-13 3-42-23-42zm1333 110c12 0 21 21 15 38-5 13-53 17-53 5 1-13 27-43 38-43zm1046 80 5 1c6 3 7 10 2 18-6 10-10 10-16 1-7-11-3-21 9-20zm-360 1c3 1 6 3 6 7 0 5-7 13-16 16-10 4-14 1-12-6 3-10 15-17 22-17zm-1367-11c23 2 48 16 34 24-6 4-11 20-11 37 0 19-5 29-15 29l-16-2-5-32c-2-16-8-33-15-37-8-5-6-10 7-16 6-3 13-4 21-3zm1290 35c2 0 5 3 9 6 18 15 18 49 0 49-8 0-18-5-21-10-3-6-3-19 0-31 3-10 7-15 12-14zm-1371-1c4 1 9 9 17 26 20 40 20 35 1 54-17 17-27 20-37 9-12-11-8-58 6-78 6-7 9-11 13-11zm-2054-44c12 1 18 8 18 19 0 21-23 45-33 34-4-3-7-17-7-30 0-16 6-23 20-23h2zm3514 80c8 1 14 6 14 13 0 18-21 37-39 36-11 0-12-2-3-6 6-2 12-13 12-24 0-10 7-19 15-19h1zm-5093-100 12 3c8 4 15 16 15 27 0 25-2 25-25 0-16-18-16-31-2-30zm6567 183 22 3c31 6 42 32 33 74-10 46-40 59-122 52-50-4-53-16-20-76 20-36 50-54 87-53zm-3918-73c5 0 8 3 8 8 0 15-24 32-44 32-18 0-19-1-1-20 12-13 27-21 37-20zm1583 62c20 1 21 11-1 29-9 7-20 23-25 36-7 19-12 21-41 13-36-11-64 4-29 15 12 3 21 11 21 16 0 6 5 7 10 4 18-11 10 7-12 26-23 21-29 21-75 7-52-17-86-108-40-108 20 0 23 4 19 30-2 17 0 30 6 30 16 0 55-69 48-86-5-12-2-14 11-9 22 9 27 9 81 0l27-3zm178 30c7 1 9 10 0 19-7 7-13 7-17 1-3-6-1-14 5-17 4-3 8-4 12-3zm-13892-311c3 0 7 3 11 7 10 10 9 15-4 28s-16 13-21 1c-3-7-1-20 4-28 3-6 6-9 10-8zm15019 366c55 1 113 11 126 25 14 14 14 21 4 54-18 54-42 103-59 117-8 7-37 13-65 14s-64 4-81 7c-17 4-44 0-62-8-89-40-53-173 54-203 20-6 51-7 83-6zm-4635-95h2c10 2 18 12 18 22 0 22-14 29-34 17-18-12-7-41 14-39zm1702 40c11 0 15 6 19 22 9 37-3 73-31 98-14 12-25 31-25 43 0 14-14 32-38 49-39 27-62 31-97 17-11-5-28-18-39-30-26-29-17-99 17-125a649 649 0 0 1 194-74zm-1046-18c12 0 28 4 49 10l55 16v93c0 107-7 122-63 132-24 4-52 21-78 46-39 38-42 40-59 23-24-24-14-88 18-123 20-21 27-41 34-105 7-70 13-93 44-92zm-3731-74c11 0 10 4-4 25-14 22-15 25-1 25 18 0 19 12 3 28-17 17-23 15-36-12-12-27 8-66 35-66h3zm2038 73c17 1 22 16 22 50 0 36-4 44-31 60-38 21-42 21-62-1-33-37-15-84 38-102 14-5 25-7 33-7zm9002 215c16 1 30 7 34 17 9 24-6 56-31 66-36 13-43 11-53-17-14-35-13-41 10-57 11-8 26-10 40-9zm-10189-228c6 1 11 11 7 21-4 11-6 11-12 0-4-7-5-15-2-18 2-2 5-3 7-3zm90 23c5 0 9 4 9 11 0 9-7 16-16 16s-14-5-12-12c3-10 12-16 19-15zm5461 127c57 3 80 54 36 84-26 19-27 19-50 5-12-7-18-22-18-49 0-36 2-40 26-40h6zm-5389-109c7 0 15 7 27 19 23 23 26 50 8 68s-34 14-52-13c-13-20-14-29-4-50 7-16 13-24 21-24zm1714 61c10 1 29 25 43 52s36 54 48 59c13 6 32 28 43 48 16 33 25 39 64 44 53 9 61 16 68 75l12 70c5 20-2 38-34 79-22 30-43 71-46 91-8 44-24 61-84 84-24 9-54 24-65 32s-34 14-51 14c-16 1-41 7-55 15s-35 14-47 15c-12 0-28 8-35 18-17 22-94 82-105 81-4 0-24-7-43-16l-57-26c-12-5-36-38-53-73-35-73-60-83-84-35-20 37-28 40-114 30-82-9-95-16-123-70-23-46-24-63-5-79 8-6 16-28 18-47 3-31 8-37 45-52 45-18 103-67 103-88 0-25 20-13 34 21 12 28 18 33 39 29 33-7 47 33 40 121l-6 66h27c21 0 42-15 83-57 63-67 78-97 88-173 10-81 12-85 56-116 22-15 49-44 59-63 10-20 27-45 39-55 12-11 21-24 21-31 0-20 57-67 77-63zm-1260-22c23 0 35 5 39 18 14 42 29 61 55 73 37 15 36 29-2 110-27 55-37 68-68 79-20 7-42 17-48 22-14 11-18 58-5 58 4 0 16 14 26 30 13 23 15 34 7 44a60 60 0 0 1-67 16c-38-15-49-38-37-82 10-37 9-42-22-83-59-76-48-148 32-229 46-46 62-56 90-56zm-2721-37c26 1 34 21 34 68 0 38-5 53-25 74-34 33-55 32-93-8-37-38-38-48-15-87 11-19 30-32 60-40 16-5 29-7 39-7zm6441 158c12 0 28 9 45 29 15 17 36 30 50 30 32 0 42 9 67 57 49 98 56 175 20 248-16 32-38 41-94 38-106-7-125-14-169-56-55-53-96-113-96-142 0-32 69-112 111-129 28-11 38-22 42-45 4-20 13-30 24-30zm-2659-49h1c21 4 21 42-1 46-9 2-19-1-22-7-10-16 5-41 22-39zm-2805-22c43 2 66 30 74 89 4 30 0 43-22 69-34 40-75 43-110 7-20-19-25-34-25-75 0-64 23-90 79-90h4zm6779 158 8 2c12 7 12 13 4 27-14 22-40 28-49 13-10-16 18-43 37-42zm1481 67c6 1 12 5 12 15 0 8-8 16-18 18-14 3-18-1-15-15 2-12 12-18 21-18zm-1574-34c7 0 10 7 14 21 5 17 9 19 20 9 15-12 47-5 47 10 0 5-11 14-25 19s-25 14-25 19c0 13-33 19-58 10-36-13-39-39-8-66 17-15 28-22 35-22zm-618-12c17 0 32 8 43 23 25 35 19 63-18 91-47 37-77 42-104 19-31-27-28-58 10-98 22-24 48-36 69-35zm1445 43c11 1 19 11 19 27 0 25-26 40-57 33-24-5-23-17 3-43 12-12 25-18 35-17zm-552-8c10 1 26 14 47 38 41 46 45 58 28 89-8 16-19 19-52 17l-42-3-1-67c-1-52 4-76 20-74zm-3507-63 17 3c29 7 38 28 26 61a39 39 0 0 1-70 6c-22-42-9-71 27-70zm-2946-57a111 111 0 0 1 105 91c9 52-11 90-63 120-52 29-49 28-88 11-61-26-83-82-55-143 24-54 58-81 101-79zm4496 117 4 1c23 8 17 43-8 46-13 2-23-1-23-6 0-6 7-13 16-16 8-3 12-11 8-17-3-6-2-9 3-8zm-1125 45c12 1 18 19 18 54 0 65-43 103-78 68-20-20-13-53 19-91 17-21 31-31 41-31zm268 46 13 2c42 9 55 23 59 70 3 34-1 41-27 57-42 24-72 23-89-3-28-46-28-76-1-104 17-17 28-23 45-22zm171 67c10 0 19 19 21 52 3 58-14 79-63 79-21 0-28-6-33-26-8-30 8-54 34-54 11 0 20-10 24-25 4-18 11-27 17-26zm6815 232c13 0 25 4 32 11 19 19 14 66-8 88-23 23-88 27-105 7-23-25-26-37-15-57 16-29 62-49 96-49zm-7239-125c8 1 16 2 25 5 67 18 76 102 15 139-45 28-81 26-107-7-23-30-20-74 9-106 20-23 36-32 58-31zm819 24c29 2 64 32 64 71 0 34-44 52-77 31-19-12-31-55-22-79 6-17 20-24 35-23zm-1432-30c23 2 31 27 16 45-16 19-49 19-56 0-8-20 13-45 38-45h2zm9973 260c22 1 38 11 61 33 37 38 37 40 16 61-21 22-72 20-111-4-56-33-37-90 29-90h5zm-8126-165c19 1 52 32 44 45-7 11-48 13-58 3-12-12-7-41 8-47l6-1zm1821 58c18 1 36 4 54 10 36 13 39 17 44 58 9 73-4 95-73 129-34 17-72 30-85 30s-41-17-64-38c-37-35-40-41-33-71 4-18 22-50 41-71 29-32 71-49 116-47zm-1535 17 5 1c9 5 31 9 48 9 27 0 31 3 25 18-4 9-9 41-12 70-5 41-11 57-29 69s-24 24-24 54c0 28-6 42-22 53-30 21-32 21-64-19-88-107-85-102-69-115 8-7 15-22 15-34 0-29 96-106 127-106zm3959 112c16 0 30 8 32 23 3 22-31 65-51 64-7 0-18-3-24-6-19-7-15-48 6-67 11-10 25-15 37-14zm-12941-282c27 2 39 15 54 54 10 24 8 31-18 57-29 29-38 31-74 22-19-5-37-41-37-74 0-28 36-59 69-59h6zm13503 305c10 1 22 9 22 20 0 8-8 16-18 19-11 4-25 18-32 31-18 34-30 31-30-5 0-16-5-30-11-30-5 0-7-4-4-10 3-5 17-10 30-10s26-4 30-10c3-4 8-6 13-5zm-2949-64c-8-1-7 2 2 13 17 18 42 21 37 4-3-7-15-15-27-16l-12-1zm883 23c3 0 7 1 10 4 8 8 8 15-2 27-16 19-40 20-40 1 0-17 18-33 32-32zm-4111-44c16 1 19 8 19 40 0 45-21 63-57 49-45-17-16-89 35-89h3zm6089 160c5 1 12 5 15 10 3 6 2 10-4 10-5 0-13-4-16-10-3-5-2-10 4-10h1zm-5776-129c11 0 19 6 22 17 3 9 16 40 30 68 31 65 30 83-5 139-28 44-29 48-16 93 7 26 21 62 30 81 10 18 20 52 22 75 9 78-31 100-208 114-61 5-93 12-106 25-21 18-35 21-47 10-4-5-14-22-21-39-7-18-27-37-49-48-59-28-72-75-34-126 14-20 21-42 20-69-1-31 3-43 18-51 12-6 20-21 20-35 0-34 34-65 70-65s80-38 80-69c0-21 38-56 73-67 12-4 35-17 50-30 19-16 37-24 51-23zm-499-1c34 2 84 40 90 68 3 15 10 41 16 59 8 25 7 37-6 56-9 14-14 31-13 38 2 9-8 15-27 17-16 2-37 10-45 17-13 11-19 11-42-1-20-11-33-11-58-3-41 15-61-1-42-32 9-15 10-29 2-59-11-39-5-85 12-107a245 245 0 0 1 113-53zm5644 140c37 2 39 8 54 36 31 62 24 85-38 127-60 40-71 42-125 24-65-22-79-133-19-159 16-7 29-16 29-20 0-5 30-8 68-8h31zm-4614-91c15 1 12 24-3 29-9 3-13-2-10-12 1-10 8-17 13-17zm4576 106c-6-1-11 1-15 5-5 5-18 10-28 10-12 0-18 7-18 21 0 19 4 21 38 15 20-3 45-6 55-6 26 0 20-25-10-39-9-4-16-6-22-6zm-7925-155c2 1 4 5 4 10 0 6-5 10-11 10-5 0-7-4-4-10 3-5 8-10 11-10zm-3155-58c4 0 8 3 14 8 20 17 16 54-7 58-9 2-22-6-28-19-10-17-9-24 4-37 7-7 12-11 17-10zm6945 163c75 3 136 25 155 62 19 38 8 136-21 197-20 40-18 51 22 107 9 14 8 23-6 44-17 25-22 27-67 22-45-6-52-3-116 40-112 76-168 91-199 54-14-15-17-49-20-179-3-156-3-160 21-193 14-18 25-47 25-64 0-41 16-59 65-73 47-13 97-18 141-17zm4441 115c44 1 50 17 17 51s-78 39-93 10c-15-27 25-61 72-61h4zm-288 1c-4-1-8 5-12 18-3 14-11 17-31 14-19-4-26-1-26 11 0 16 19 19 55 8 12-4 20-16 21-29 0-14-3-21-7-22zm-2638-44 9 1c22 3 28 8 20 16-6 9-6 16 2 24 9 9 8 12-3 12-9 0-23-8-32-18-23-25-21-37 4-35zm-4238-76c9 0 19 4 26 13 9 10 6 17-13 30-28 17-42 20-49 9-3-5-1-18 4-30 5-15 18-23 32-22zm7433 189c16 1 26 28 16 46-7 12-11 12-25 1-20-14-14-47 8-47h1zm3162 140c38 1 48 23 27 56-18 27-56 32-75 9-23-27 3-65 44-65h4zm-4512-95c10 0 19 2 25 5 25 14 24 46 0 60-11 5-22 18-25 28-5 14-63 52-79 52-2 0-18-13-37-29-34-28-34-30-17-48 10-10 24-26 31-36 12-19 66-33 102-32zm131 38c16 1 28 14 28 37 0 27-33 43-58 28-23-12-21-31 4-54 9-8 18-11 26-11zm-5296-103c5 1 9 5 9 10 0 6-4 10-10 10-5 0-10-4-10-10 0-5 5-10 10-10h1zm4436 138c28 0 57 6 80 17 28 13 39 14 74 4 34-11 42-10 50 2 16 25 10 41-29 78-21 20-44 51-51 69-16 37-55 72-82 72-9 0-31 11-47 25-19 16-42 25-63 25-19 0-49 9-67 20-43 27-52 25-52-8 0-16-9-37-20-47-29-26-27-92 5-139 14-20 25-41 25-45 0-9 90-56 130-67 14-4 30-6 47-6zm2673 73 7 3c4 3-2 6-13 5-11 0-14-3-6-6 4-2 8-2 12-2zm-4826-79 25 2c45 6 63 19 55 41-3 6 2 28 11 48 14 34 14 38-3 54-11 10-33 26-50 35-29 15-32 22-32 61 0 55 20 105 39 99 7-2 22-13 32-23 11-11 32-19 47-19 19 0 41-13 71-41 40-38 45-41 87-35l89 12c45 6 47 9 47 54 0 42-2 50-17 50-39 0-74 30-86 73-19 74-40 107-84 132-46 28-85 31-130 10l-47-19c-18-5-25-54-19-135l2-34-39 7c-44 7-58-3-64-44-2-17-10-26-25-28-24-4-63-46-63-68 0-7 11-26 25-42 14-17 25-38 25-47 0-40 26-98 54-122 20-17 30-22 50-21zm5059 116c15 1 30 6 41 17 16 17 12 68-7 93-16 20-91 15-112-8-38-42 24-102 78-102zm-9173-188c49 2 70 18 70 53 0 40-19 99-34 109s-26 9-61-6c-16-7-43-25-58-39l-28-27 20-39c22-41 37-51 81-51h10zm2930 141c8 2 15 10 21 25 9 25 11 26 28 10 15-13 31-15 90-10l71 7v42c0 22 7 50 15 61 8 10 15 28 15 39 0 23-46 115-66 130-7 6-18 29-24 52-17 69-47 85-120 64-21-6-25-13-24-46 1-29 8-44 28-60 33-26 33-36-1-75-21-25-26-41-24-75 1-28-3-46-14-55-8-7-15-21-15-31 0-20-15-26-23-9-9 17-2-2 13-37 10-22 20-33 30-32zm-1102-22c13 0 29 13 63 46 31 30 68 57 83 61 29 7 35 22 38 104 3 51 5 55 33 63 64 19 80 34 83 74 2 31-3 44-27 69-27 29-34 31-75 27-53-6-56 1-30 63 41 99-28 190-98 129a70 70 0 0 1-28-55c0-34 3-33-105-30-68 2-84 5-105 25-37 34-65 39-110 19-39-17-40-19-40-69 0-52 19-85 48-85 18 0 19-75 1-96-10-13 7-216 21-251 14-34 54-30 80 7 29 41 65 40 113-4 31-28 37-39 32-59-5-18-2-28 12-35 4-2 7-3 11-3zm3684 83c28 0 62 9 85 23 24 16 25 21 19 69-9 63-9 66-1 93 5 16 0 29-19 47-30 31-69 33-96 6-11-11-20-24-20-29 0-6-13-18-30-28-24-14-30-24-30-51 0-36 29-100 54-121 7-6 22-9 38-9zm3217 99c14 1 23 5 30 13 7 9 26 16 42 16 18 0 32 7 39 21 10 18 5 26-42 70-44 41-59 49-91 49-29 0-46-7-68-30-56-56-22-125 67-137l23-2zm1589 44 8 2c21 8 17 33-6 33-11 0-20-6-20-13 0-15 7-24 18-22zm-5454-122c14 0 19 5 23 14 4 10 1 19-8 22-8 2-26 17-41 33-28 30-74 38-96 16-35-35 2-72 86-82l36-3zm957 47c6 1 9 5 9 10 0 6-4 10-10 10-5 0-10-4-10-10 0-5 5-10 10-10h1zm2071 50c4 1 8 5 8 10 0 6-7 10-16 10-8 0-12-4-9-10 3-5 10-10 16-10h1zm-10682-239 7 3c4 3-2 6-13 5-11 0-14-3-6-6 4-2 8-2 12-2zm2874 99c7 0 23 8 35 18 20 16 21 18 6 40-19 26-63 30-72 6-8-20 13-64 31-64zm5752 130c7 0 14 7 14 15 0 16-12 20-23 8-12-11-8-23 8-23h1zm1831 74 3 1c6 4 8 11 5 16-9 14-15 11-15-7 0-6 3-10 7-10zm-2667-44c12 2 40 28 40 39 0 29-73 43-84 16-6-15 26-55 43-55h1zm-4507-90c7 0 18 21 24 48 9 38 8 51-3 70-14 21-53 30-67 15-23-23 15-133 46-133zm6278 154c18 2 21 14 9 36-13 25-1 40 32 40 23 0 34 24 42 85 8 58 5 64-74 127-110 89-166 111-212 87-17-9-25-6-55 23-19 18-42 45-51 61-20 34-58 35-90 3-19-19-21-26-12-53 10-28 44-53 74-53 8 0 19-7 26-15 11-13 9-23-9-60-18-36-21-53-15-95 6-44 12-55 38-70 17-10 49-32 71-48 22-17 60-33 85-37s67-14 93-22c21-7 37-10 48-9zm5296 142c5 0 7 4 10 10 5 13 15 15 59 9 50-6 54-5 54 14 0 22-30 46-70 56-14 3-34 19-45 35-25 38-52 39-61 3-4-15-13-33-20-40-20-21-5-51 37-73 20-10 30-15 36-14zm-9830-216c7 1 13 5 13 10 0 6-7 10-15 10s-15-4-15-10c0-5 7-10 15-10h2zm9872 257c-5-1-12 2-20 9-10 9-19 21-19 26 0 15 38 8 44-8s3-27-5-27zm-18146-390 71 13c57 10 77 19 102 44 41 41 55 94 45 173-8 69-19 87-70 113-58 29-110 33-156 11-73-33-108-78-127-161-23-95-14-114 71-159zm13863 323c45 2 57 38 11 91-30 33-44 37-94 27-40-9-43-12-43-42 0-28 5-35 45-54 32-16 60-22 81-22zm-720 0c24 1 33 24 18 44-13 18-14 18-24-8-13-35-13-36 4-36h2zm-1721-20c16 1 28 6 31 15 4 8 16 15 29 15 36 0 49 23 32 55-18 36-86 44-113 14-10-11-12-19-6-19 7 0 12-9 12-20 0-27-14-25-37 3-10 13-28 29-41 36-28 15-29 52-2 76 23 21 60 98 60 126 0 10-9 23-20 29-10 6-25 28-31 50-16 51-62 98-126 126-55 25-75 48-70 85 1 18-4 24-28 29-17 4-43 15-58 24-23 16-35 17-84 8-73-13-98 0-113 60-6 24-14 50-19 58-10 19-37 25-46 11-3-6-15-11-25-11-11 0-26-12-34-29-9-17-31-35-55-45-25-10-46-27-56-46-8-16-23-30-33-30-21 0-42-19-42-37 0-7 11-13 25-13 13 0 29-6 35-12 31-37 70-106 70-124 0-27 24-48 78-69 45-19 47-21 57-118 8-89 20-107 124-185 16-13 33-32 36-43 12-37 83-34 245 12l76 21 38-26c28-19 65-28 91-26zm2399 55-14 2c-20 5-25 15-13 26 7 8 33-11 33-23 0-3-2-4-6-5zm-4392-94c16 0 33 9 61 28l70 45c38 23 48 54 48 153v84l-63 73c-35 40-71 87-80 105-23 43-53 41-72-3-12-28-22-36-51-42-21-4-48-19-64-36-28-30-28-30-59-14-20 10-32 24-32 37 0 26-52 79-78 79-15 0-23-13-37-57-9-32-23-72-31-90-20-45-18-64 17-116l32-47 72-24c62-21 71-27 81-57 11-33 36-53 104-85l52-25c11-6 20-9 30-8zm-1021-21c5 0 9 7 9 15s-4 15-10 15c-5 0-10-7-10-15s5-15 10-15h1zm-30 0c5 0 9 7 9 15s-4 15-10 15c-5 0-10-7-10-15s5-15 10-15h1zm1577 122c22-1 26 12 24 43-3 31 2 45 17 59 12 11 21 23 21 28 0 21-56 78-77 78-52 0-64 66-17 97 18 12 36 14 72 9 80-12 94-12 105 5 16 26-1 68-37 90-28 16-86 105-86 132 0 4 30 7 66 7 51 0 72-5 91-20 31-25 45-25 72-2 21 16 21 19 6 61-8 24-15 58-15 75 0 24-8 38-30 54-16 12-40 40-52 62l-23 40-63-3c-56-3-66-7-87-33-14-16-24-37-25-46 0-9-4-20-10-23-5-3-10-32-10-63l-1-57-19 24c-21 25-27 66-10 76s11 76-11 122c-19 40-66 85-86 82l-58-8c-39-5-61-15-98-46-52-44-53-47-21-143 8-23 14-49 14-57s12-22 26-31c14-10 33-33 44-53 10-20 28-45 40-56 28-25 50-67 50-95 0-11 7-32 16-45s13-29 9-35c-10-17 4-47 25-53 39-10 33-35-22-97-45-51-57-60-78-55-72 17-80 17-80 2 0-8 7-20 15-27s15-20 15-30 8-27 18-39c20-24 94-31 129-12 18 9 34 8 78-4 29-9 49-13 63-13zm-5317-91c9 1 20 6 34 15 36 23 35 81-1 94-28 11-32 11-54 3-33-13-39-36-19-75 13-26 24-38 40-37zm5938 135c27 1 51 11 58 30 9 24-15 92-40 109-36 25-73 19-101-18-30-40-31-49-10-82 17-26 58-40 93-39zm-7513-165c9 1 21 5 39 13 23 10 35 22 35 34 0 46-80 70-113 34-15-16-15-20 3-50 14-23 21-32 36-31zm5468 125 15 1c21 3 50 18 68 36l32 30-19 37c-18 35-72 90-89 90-4 0-19-12-32-27-27-30-49-74-49-99 0-9 12-28 27-44 18-19 28-25 47-24zm-6725-146c20 2 36 21 26 51-7 20-40 25-65 9-12-7-12-12 0-34 10-19 25-27 39-26zm10440 290c19 2 21 7 21 29 0 16-7 34-16 42-19 16-150 24-159 9-3-5 2-10 12-10 11 0 34-16 53-35 27-27 43-34 73-35h16zm-4076-80c4 0 8 3 12 10 3 6 23 10 44 10 20 0 46 6 56 14 17 12 18 18 7 54-14 45-57 81-75 63-17-17-25-13-30 12-2 12-5 15-6 6 0-9-10-19-21-22-15-4-20-14-20-41 0-20 5-36 10-36 6 0 10-16 10-35 0-23 6-36 13-35zm-1580-36c29 2 40 27 25 61-12 26-24 33-50 28-37-9-34-76 3-86l22-3zm-1019 36c2 0 6 7 10 15 3 8 1 15-4 15-6 0-10-7-10-15s2-15 4-15zm-1093-8c13 1 28 12 39 33 11 20 11 27 0 40-13 15-51 20-63 8-4-3-7-21-7-39 0-29 14-43 31-42zm7192 169c5 0 12 2 20 5 12 4 11 13-9 55-13 27-26 49-28 49s-6-9-9-20c-3-10 1-27 8-36 7-10 10-26 7-36-3-12 1-18 11-17zm255 30c4 0 7 1 9 3 4 3-2 6-13 5-11 0-14-3-6-6l10-2zm-4469-81c47 2 110 27 122 57 12 33 12 39-7 57a51 51 0 0 1-80-9c-9-14-27-28-40-31-33-8-57-43-42-61 8-10 26-14 47-13zm-1111-4c11 0 21 8 32 24 36 50 23 70-45 70-19 0-36-3-38-7-3-5-7-21-8-38-3-24 0-30 14-29 9 1 17-2 17-6s9-10 20-13l8-1zm5986 144c10 1 16 6 14 12-6 18-25 20-31 3-5-10 0-15 14-15h3zm-5977-106c-3 0-7 2-12 6-8 7-15 14-15 16s7 1 15-2c8-4 15-11 15-16 0-3-1-4-3-4zm6529 199c10 0 16 5 27 15 20 20 20 21 1 48l-29 43c-34 55-49 71-64 71-10 0-21-3-24-7-4-3-7-19-7-35 0-15-5-37-12-47-9-15-7-23 13-44a184 184 0 0 1 95-44zm-5806-113c20 1 30 18 23 38-5 14-33 17-33 3 0-5-3-16-6-25-4-11 0-16 14-16h2zm1428 36 5 3c7 7 6 16-6 29-13 14-14 21-5 30 6 6 14 28 17 49 5 30 11 39 29 41 15 2 22 9 19 17-3 7 6 23 20 35 28 24 40 21 25-6-7-13-6-24 4-39 13-19 11-23-16-43-16-12-36-22-45-22-24 0-17-34 10-47 28-12 39-4 28 23-5 14-2 16 15 12 13-4 27 1 39 14 10 11 37 29 61 41 56 26 76 56 67 99-12 57-31 78-71 78-19 0-42 7-50 15-23 23-34 18-34-15 0-34 0-34-33-17-19 10-23 17-15 30 5 9 16 17 23 17 11 0 15 11 15 38 0 20-4 32-8 26-11-18-61-23-73-8-13 16-39 19-39 4 0-5 11-19 24-32 19-18 22-28 15-45-4-13-15-23-24-23-12 0-14 4-5 19 18 35 11 38-52 21l-37-11 4-55c5-61 11-76 30-72s20-4 5-28c-11-18-18-20-36-12-22 10-24 19-24 100 0 20-5 40-10 43-6 3-10-5-10-18s-9-32-19-41c-32-29-35-76-8-127 19-34 29-43 47-41 16 1 36-12 67-44 26-27 41-38 51-38zm3198 84c2 0 4 5 4 10 0 6-5 10-11 10-5 0-7-4-4-10 3-5 8-10 11-10zm-5074-110c46 2 68 27 68 76 0 80-22 98-86 70-37-16-39-20-48-68-8-45 18-78 62-78h4zm-589-10c43 2 52 9 71 47s21 77 4 90c-13 10-98 43-110 43-4 0-16-11-26-25-26-32-36-93-23-128 10-25 15-27 63-27h21zm8400 204c52 1 109 34 86 62-15 19-83 54-101 53-7 0-23-5-36-11-34-17-28-78 10-96 12-6 26-8 41-8zm-1609-30c-2-1-3 3-3 10-1 11 2 17 5 13 3-3 4-12 1-19l-3-4zm-2357-51 26 6c52 20 21 91-39 91-12 0-29-11-38-25-25-39 6-75 51-72zm-3023-52c10 0 20 5 33 14 14 10 23 28 25 52 2 28 9 41 27 50 32 15 42 34 44 83 1 36-4 45-51 90-54 52-70 58-90 38-7-7-12-29-12-49 0-46-17-64-67-74-49-9-83-40-83-77 0-15 4-28 8-28 5 0 19-9 32-20s30-20 38-20 30-13 49-30c21-19 35-28 47-29zm4212 108c5 1 10 5 12 10 2 6-4 11-13 11s-15-5-13-11 8-10 13-10h1zm-6800-139c8 1 14 5 14 10 0 6-4 10-9 10-6 0-13-4-16-10-3-5 1-10 9-10h2zm3675 100c5 1 9 5 9 10 0 6-4 10-10 10-5 0-10-4-10-10 0-5 5-10 10-10h1zm4460 110c27 1 29 4 29 29 0 16-7 37-16 45-18 19-65 21-82 4-7-7-12-21-12-33 0-32 20-45 67-45h14zm-6002-68c8 1 17 5 25 13 19 19 12 63-12 83-22 17-29 15-48-12-13-22-14-29-2-53 10-21 23-31 37-31zm4179 118c33 2 57 42 42 69-14 28-56 27-70 0-18-32-4-69 25-69h3zm6447 163c11 1 21 4 29 10 19 14 18 16-20 61-38 46-80 76-106 76-7 0-24-6-38-13-58-29-23-110 52-120a2071 2071 0 0 0 83-14zm-5219-107c32 2 75 13 89 24 6 4 42 10 82 12 61 3 78 8 116 36 25 18 50 32 57 32 29 0 93 45 134 96 46 55 46 56 46 132 0 130-22 172-112 218-30 15-57 39-73 64-28 45-52 60-93 60-16 0-49 7-72 15-48 17-43 17-90 3-19-5-60-8-90-5-30 2-82 0-114-6-50-9-63-16-85-47l-79-103c-50-62-57-67-92-67-29 0-47-8-75-33-32-28-35-36-27-57 14-37 65-70 107-70 35 0 75-27 75-52 0-6 18-42 41-80 33-54 48-69 75-77 19-5 54-27 79-49s58-42 74-45c7-1 17-2 27-1zm-1920-39c7 1 15 4 22 9 18 12 20 19 12 35a36 36 0 0 1-58 7c-25-25-4-53 24-51zm1085 39c23 0 38 14 44 41 14 71 19 78 55 81 52 5 89 38 120 107 16 35 33 66 39 69 6 4 11 20 11 36 0 21-10 36-40 60-33 26-40 38-40 65 0 43-27 60-79 50-52-9-93-10-116-3-11 3-35 2-53-2s-35-9-37-11l-44-59c-46-62-52-98-20-138 85-111 117-186 85-198-18-7-27-30-19-49 3-9 24-25 46-36 18-9 35-14 48-13zm167 6 8 2c19 7 18 51-2 70-19 19-48 21-62 4-20-26 22-78 56-76zm2525 71c12 1 22 3 33 9 42 20 51 41 31 72-14 20-26 26-55 26-21 0-48-7-60-16-17-12-22-24-20-47 3-27 8-33 40-40 11-3 21-4 31-4zm-2973-5 16 6c25 11 29 23 16 42-15 22-41 24-52 4-7-14-7-25 1-38 7-10 11-15 19-14zm122 13c5 0 8 5 8 13 0 18-11 25-28 19-10-4-10-8-1-19 8-10 16-14 21-13zm-3221-70c19 0 36 7 52 19 45 35 43 96-5 148-26 27-45 27-123-2-55-21-60-25-63-55-4-40 17-67 73-92 26-12 47-18 66-18zm767 79c15 1 25 17 17 40-8 24-28 26-45 5-10-12-10-18 0-30 9-11 20-16 28-15zm1348 36c11 1 22 3 30 9 13 8 35 15 50 15 26 0 26 1 10 25-9 13-16 30-16 37s-12 24-25 37c-14 13-28 34-31 46-7 26 0 125 11 167 8 29-12 60-81 132-17 18-35 42-38 54-9 27-26 28-59 2-27-22-86-27-104-9s-52 0-59-29c-14-62-14-62-55-62-27 0-39-4-39-14 0-8-3-21-6-30-4-11 1-19 16-24 14-5 30-29 47-73 33-83 39-89 79-89 28 0 36-5 45-27 22-55 26-58 80-65 41-5 59-13 76-33 13-14 23-33 23-41 0-17 23-28 46-28zm-3071-46c12 1 16 7 13 22-5 34-38 37-38 4 0-20 5-26 21-26h4zm5990 140c63 2 81 19 69 61-9 33-18 39-93 74-45 20-57 19-81-5-29-29-25-66 9-101 25-25 37-29 83-29h13zm-2874-59c-3 0-6 1-8 3-8 8 5 36 17 36 5 0 10-6 10-14 0-12-10-23-19-25zm6952 175c6 0 10 3 16 9 12 12 12 17 1 29-16 20-54 20-70 1-10-13-7-17 21-29 15-7 25-10 32-10zm-16869-374c13 0 20 6 29 19 18 25 14 63-11 92-16 18-53 21-89 7-18-7-23-17-23-43 0-41 24-66 72-74 9-1 16-2 22-1zm4467 118c5 0 9 7 9 15s-4 15-10 15c-5 0-10-7-10-15s5-15 10-15h1zm4386 110c12 1 23 7 27 15 4 11-1 15-18 15-12 0-26-3-29-7-14-13-6-23 17-23h3zm-744-15c15 1 26 12 30 33 6 28-16 63-37 61l-38-6c-36-6-36-31 0-66 16-16 32-23 45-22zm209 33c25 1 48 8 66 22 39 29 43 41 32 81-5 17-7 35-5 40 8 11-13 22-76 40-44 12-63 13-88 4-44-15-61-40-61-92 0-38 4-45 38-67 29-20 63-29 94-28zm2219 83c12 1 22 6 30 15 12 14 9 20-16 40-29 23-65 31-78 17-15-14-6-41 18-57 17-11 32-16 46-15zm-2895-60c23 2 49 15 52 32 8 42-79 81-94 43-9-24 0-58 18-70 6-4 15-5 24-5zm2990 229c28 1 34 4 26 12-20 20-14 28 21 28 18 0 42 6 52 14 17 13 17 15-16 44-43 39-75 40-116 2-25-23-33-38-33-65v-35h66zm-1229-20c28 0 40 20 21 34-18 13-30 57-20 72 4 6 14 13 23 17 12 4 18 21 21 54 3 40 0 52-22 75-33 36-89 46-113 20-22-24-22-57 1-74 30-21 35-49 15-85-16-30-16-33 0-51 9-10 17-22 17-27 0-14 34-34 57-35zm1506 42c7 0 7 10 5 31-2 26-8 32-28 34-14 1-31-1-37-3-21-9-15-21 21-43 21-13 32-20 39-19zm-4252-82c5 0 9 5 9 10 0 6-4 10-10 10-5 0-10-4-10-10 0-5 5-10 10-10h1zm715 40c8 1 17 5 28 13 34 25-10 76-47 55-20-11-22-39-5-56 8-8 15-12 24-12zm-311 80c13 1 30 10 51 26 42 32 43 57 5 95-34 33-70 37-94 11-21-23-21-49-2-96 11-25 23-37 40-36zm-585-6c29 1 51 37 30 61-15 18-32 19-48 3-17-17-15-55 3-62 5-2 10-3 15-2zm6742 198c7 0 8 8 6 25-3 31-34 44-44 18-4-10 1-22 12-30 12-9 21-14 26-13zm-6345-130c3 0 7 2 11 4 34 22 38 42 12 69-27 28-31 30-48 13-28-28-5-89 25-86zm6060 167c19 0 38 11 53 32 25 34 24 38-28 56s-61 16-74-12c-9-19-8-29 6-50 11-17 27-26 43-26zm-5382-86c31 3 49 49 23 75-16 16-22 15-48-6-27-22-21-57 11-67 5-2 10-2 14-2zm1723 79c47 2 51 17 22 58-18 26-28 30-66 30-29 0-46-5-50-14-3-8-4-27-2-43 3-27 5-28 66-31h30zm-3865-48c23 1 47 15 78 43 40 36 41 39 37 90-5 58-29 93-62 92-12 0-43-6-69-13-65-18-78-33-79-93 0-61 13-88 53-109 15-8 29-11 42-10zm5206 117 13 2c40 10 45 42 11 81-15 18-33 41-38 50-7 12-27 20-57 23-28 3-54 13-64 24-17 19-27 22-54 12-23-8-40-34-40-60 0-32 44-52 101-46 41 5 48 2 70-25 13-16 29-37 35-47 5-10 12-14 23-14zm217 30c8 1 17 5 24 14 8 9 8 15 2 15s-17 3-25 6-18 1-22-5c-11-19 3-31 21-30zm-3819-70c11 0 21 7 34 20 17 17 20 29 15 58-9 59-52 78-98 42-31-25-27-72 10-101 16-12 28-19 39-19zm-771-2c49 4 84 37 84 91 0 47-28 82-85 106-42 17-42 17-85-4a87 87 0 0 1-49-59c-19-54-6-85 48-113 31-16 61-22 87-21zm1382 32c2 0 2 6 2 17l1 29c1 11-18 16-23 6-3-4 1-19 8-33 7-12 10-19 12-19zm2124 80c6 0 8 5 4 14-3 8-1 26 4 40 6 16 6 25 0 25s-10 5-10 11 7 9 15 5c23-8 18 18-8 42-26 25-46 28-52 10l-8-33c-4-18-5-18-6 3-1 16-7 22-24 22-20 0-22-4-19-45 4-41 8-48 46-70 29-17 49-25 58-24zm-1050 1c11-1 18 5 26 18 7 11 21 20 31 20 25 0 68 51 76 92 4 18 11 38 15 43 4 6 14 29 21 52 11 38 10 45-6 63s-26 20-74 15c-40-5-67-2-93 9-44 19-36 19-74 0-58-29-79-60-78-117 1-68 23-108 88-157 34-25 54-38 68-38zm7114 169c16 1 29 10 29 24 0 25-46 33-63 12-10-11-9-17 2-26 9-8 21-11 32-10zm-6110-111c-20 0-29 17-14 23 22 9 28 7 28-8 0-8-6-15-14-15zm1061 52c16 0 27 9 53 37 22 23 40 47 40 54 0 8 11 24 24 36 21 20 23 27 15 50-15 39-58 80-108 102-51 22-141 25-186 5-43-19-71-55-78-99-8-50 2-72 58-130 41-43 51-48 88-47a351 351 0 0 0 94-8zm-1471-29c3 0 4 5 4 15 0 24-5 28-16 11-3-6-1-16 5-22 3-3 5-4 7-4zm7652 267c37 2 82 34 82 59 0 50-104 72-134 29-32-46-9-88 48-88h4zm-4925-100c4 0 7 12 7 27 0 14 7 35 17 45 15 17 14 20-13 43-29 25-64 33-64 15 0-5 5-10 10-10 6 0 10-15 10-33 0-34 20-87 33-87zm-106 1c6 0 12 3 17 10 6 8 19 13 29 11 15-3 17 3 15 45l-3 48h-37c-21 1-47-7-60-16-22-17-22-18-5-54 13-28 29-44 44-44zm2169 53c48 1 83 46 49 80-18 18-35 19-80 5-41-12-59-37-40-56 8-7 28-19 44-24 9-3 19-5 27-5zm-2316-41c19 1 35 8 35 22 0 13-6 19-16 17-23-3-32 25-11 37 14 9 13 10-9 11-14 0-35-9-48-21-20-19-21-23-8-42 11-16 36-24 57-24zm-5974-109c3 0 5 4 7 10 6 16-8 32-17 18-2-4-1-14 3-21 3-5 5-7 7-7zm2353 98c6-1 15 4 29 14 12 8 26 13 30 10 18-11 85 17 123 51 31 28 39 42 39 70 0 45-20 82-64 116-54 42-90 37-153-22-60-56-66-82-33-144 11-20 20-50 20-67 0-19 2-28 9-28zm1243 48c10 1 18 8 18 15 0 15-21 21-33 8-13-12-7-23 13-23h2zm-10379-228c36 1 67 21 67 52 0 22-66 96-86 96-6 0-22-12-36-27-14-16-28-40-32-55-5-22-1-30 23-47 20-14 43-20 64-19zm8762 200c11 0 20 5 35 16 16 12 33 22 38 22 26 0 38 38 38 113-1 70-4 81-25 98-23 19-47 21-132 12-54-6-114-71-113-121 1-21 9-52 18-70 17-34 29-40 104-63 17-5 28-8 37-7zm8607 203c5 0 8 6 8 15 0 20-11 26-23 13-11-10-8-20 8-27 3-1 5-2 7-1zm-6704-145c12 1 22 4 30 12 19 19 15 82-6 101-25 23-45 21-70-6-26-27-28-54-6-85 11-15 32-23 52-22zm-387 37 54 27 78 35c26 10 57 66 57 103-1 26-50 85-95 114-24 16-42 18-93 14-56-4-67-9-93-38a96 96 0 0 1-29-75c1-62 31-121 79-153zm-7033-147c8 1 12 8 10 17-5 25-28 28-28 4 0-12 6-21 16-21h2zm6694 183c9 1 18 4 32 11 53 25 58 66 14 129-25 35-87 38-117 6-23-25-35-70-26-98 3-11 25-27 50-37 23-8 35-12 47-11zm7538 170c6 0 10 6 10 16 0 12-6 21-16 21-9 0-14-7-12-17 3-14 11-21 18-20zm-12665-259c8 0 19 5 28 15l21 21h-21c-11 0-26-6-32-14-12-15-7-23 4-22zm8760 208 12 2c15 6 15 8 3 16-8 6-17 10-20 10s-12-4-20-10c-12-8-12-10 3-16 6-2 14-3 22-2zm-1264 88c11 0 23 2 37 6 24 7 30 42 10 62-18 18-87 15-94-3-4-8-3-26 0-40 5-19 20-27 47-25zm-767-5 38 55c43 62 47 90 17 128-26 33-47 42-77 31-16-6-32-4-52 6l-32 15c-2 0-27-21-55-46-67-58-68-79-10-139 40-42 45-44 106-47zm601 28c21 2 36 21 33 46-3 26-27 36-55 25-22-9-16-62 7-69 5-2 10-2 15-2zm-3207-41 13 3c25 8 20 29-9 33l-22 5 9 35c9 28 6 39-20 76-17 27-42 48-61 55-38 13-33 14-46-2-14-16-7-88 10-98 7-5 20-9 29-9s21-11 27-25 18-25 27-25c8 0 15-9 15-19 0-20 10-30 28-29zm4136 128c16 1 17 3 6 10-19 12-27 12-35 0-4-6 6-10 22-10h7zm557 20c5 0 7 5 4 10-3 6-8 10-11 10-2 0-4-4-4-10 0-5 5-10 11-10zm2488 72 29 3c76 14 85 57 21 98-47 31-85 34-115 9-29-23-34-42-18-74 13-25 43-38 83-36zm-3170-71c11 1 31 22 25 30-8 14-24 11-31-6-3-9-3-19 1-22l5-2zm-2868-21c5 1 9 5 9 10 0 6-2 10-4 10-3 0-8-4-11-10-3-5-1-10 4-10h2zm1697 44 22 6c17 7 44 10 65 6 25-5 44-2 65 11 37 21 38 36 4 62-31 24-51 26-80 5-12-8-41-18-65-22-34-6-45-12-47-28-4-26 12-41 36-40zm-1897-34c5 1 9 10 9 20 0 11-4 20-10 20-5 0-10-9-10-20s5-20 10-20h1zm1280 44 9 1c21 7 27 39 10 50-5 3-10 15-10 26 0 10-9 39-21 64l-21 45h-54c-30 0-64-6-75-12-17-10-23-10-26 0-9 24-41 13-52-18-5-16-14-30-19-30-13 0-26-90-15-101 14-13 176-27 199-16 14 6 29 5 43-3 9-4 22-7 32-6zm-3511-72 4 1c16 6 32 34 25 41-13 12-68 16-74 6-9-16 25-49 45-48zm-179 1c35 2 56 46 27 75-19 19-35 14-58-15-25-32-22-45 13-57l18-3zm6160 227c5 0 9 5 9 10 0 6-4 10-10 10-5 0-10-4-10-10 0-5 5-10 10-10h1zm-35 43c2 0 4 2 4 6 0 5-4 13-10 16-5 3-10 2-10-4 0-5 5-13 10-16l6-2zm-11947-198c17 0 31 14 31 36 0 28-35 43-54 23-22-21-20-41 5-54 6-3 12-5 18-5zm8056 225c39 0 195 54 206 72 5 7 9 27 9 44s9 43 20 57c25 32 25 33-5 69-14 16-25 38-25 49 0 28-36 59-69 59-17 0-33 5-36 10-8 12-55 13-76 0-9-5-31-12-49-15-47-8-57-19-63-68l-17-122-11-80 43-37c29-25 53-38 73-38zm1311 55c3 0 8 2 14 5 21 11 27 35 10 45-5 3-10-3-10-14 0-12-4-21-10-21-5 0-10-5-10-10 0-4 2-6 6-5zm740 45c18 3 33 42 23 68-5 12-13 22-18 22-6 0-8-6-5-13 6-18-22-42-31-27-10 17-35 11-35-8 0-18 37-42 64-42h2zm313 43a1553 1553 0 0 1 167 14c7 2 18 28 24 56 7 29 24 64 38 79 25 28 25 28 7 61-22 41-15 64 21 78 15 5 41 23 57 39 17 17 34 30 37 30 4 0 12 11 18 24 17 39-15 61-92 62-33 0-70 4-82 8-15 6-32-2-67-28-26-19-55-44-66-55-16-16-96-41-131-41-20 0-101-63-114-88-27-54-29-83-6-107 12-13 29-38 38-56 11-20 34-42 62-56 31-16 45-21 89-20zm3037 121c3 0 6 2 8 5 4 5 2 12-3 15-5 4-12 2-15-3-4-5-2-12 3-15 2-2 4-2 7-2zm-12267-229c9 0 16 5 16 15 0 8-11 16-23 18-19 3-23 0-20-15 2-12 16-19 27-18zm7757 205c13 1 26 6 34 15 7 8 23 15 36 15 30 0 31 21 3 38-14 9-19 20-16 33 4 13 0 19-11 19-10 0-26 2-37 4s-28 2-37-1c-9-2-15-10-12-18 3-7 1-16-5-20-12-7-5-52 12-72 6-9 19-13 33-13zm4377 150c29 1 38 5 42 20 4 12 1 27-5 35-12 14-61 19-87 8-7-2-13-18-13-34 0-28 1-29 49-29h14zm-441 13c31 2 66 13 77 29 9 14 20 18 37 14 20-5 24-3 24 16 0 28-51 64-104 73-31 6-39 3-66-23-37-37-41-85-9-102 10-5 25-7 41-7zm-6572-72 7 3c4 3-2 6-13 5-11 0-14-3-6-6 4-2 8-2 12-2zm5034 139c26 0 96 36 96 49 0 8-45 31-58 31l-34-16c-37-20-40-64-4-64zm-4541-80c22 1 31 18 17 35-17 20-27 19-39-4-12-21-5-31 20-31h2zm1860 54 11 2c11 3 44 6 72 5 37-1 57 4 76 18 14 12 38 25 52 31 14 5 30 20 35 33 5 14 17 27 25 30 26 10 19 53-14 84-16 15-30 33-30 40s-9 20-19 30a96 96 0 0 0-26 46c-7 26-9 27-54 21-58-7-81 14-86 78-5 70-20 95-77 127-60 35-63 35-99 13-74-44-90-135-39-215 16-26 36-47 44-47 24 0 47-40 36-61-14-26-12-153 2-167 7-7 23-12 36-12 17 0 26-8 34-31 7-19 11-26 21-25zm-8343-133c10 1 20 3 31 9 21 12 25 52 6 68-25 21-63 24-81 7-38-39-4-87 44-84zm11616 317c35 2 74 29 74 52 0 10 5 22 10 25 18 11 10 42-15 59-28 18-51 21-60 6-3-5-19-10-34-10-29 0-61-27-61-51 0-28 54-81 83-81h3zm-2367 13c3 0 6 1 8 3 4 3-2 6-13 5-11 0-14-3-6-6l11-2zm-1300-26 4 2c4 3 7 12 7 20 0 15-26 18-34 4-6-10 12-28 23-26zm-1863-17c11 0 25 5 44 14 38 17 48 19 80 8 64-21 118 27 85 76-8 13-20 24-25 24s-16 16-24 35c-17 40-26 42-80 14-24-13-49-19-65-16-31 7-44 0-60-30-15-29-14-58 4-92 12-24 23-35 41-33zm3773 112c26 0 55 9 78 26 39 30 41 43 10 72-29 27-67 28-90 2-9-11-17-25-17-30 0-6-7-10-15-10-9 0-18-7-21-15-11-28 18-45 55-45zm-5014-50c11 1 15 7 13 17-4 20-33 29-43 14-9-16 3-31 26-31h4zm4879 151c9 0 20 2 35 4 54 7 56 9 75 71 5 16-5 35-41 78-48 56-77 69-112 47-9-6-15-32-16-81-2-61 1-76 19-97 14-16 21-22 40-22zm-2943-27c16 1 29 11 29 26 0 23-34 32-57 15-17-13-17-15-2-30 9-8 20-12 30-11zm1900 66c9 0 27 9 40 19 23 19 24 19 5 40-21 23-56 27-74 9-25-25-6-68 29-68zm633 20c25 1 46 17 46 36 0 22-30 44-60 44-24 0-30-5-35-31-8-36 4-49 46-49h3zm-4622-88c8 0 16 6 28 18 25 25 26 52 2 73-21 19-39 21-64 6-24-13-23-50 2-77 14-14 23-21 32-20zm4239 98c4 0 6 7 3 15-4 8-8 15-10 15s-4-7-4-15 4-15 10-15h1zm-1204-26 3 1c6 3 10 10 10 16 0 5-4 9-10 9-5 0-10-7-10-16 0-6 3-10 7-10zm34 16c6 1 11 11 7 21-4 11-6 11-12 0-4-7-5-15-2-18 2-2 5-3 7-3zm2155 250c26 1 47 11 65 31 25 26 29 39 29 85 0 52-2 55-42 84-22 16-44 29-47 28l-38-5c-17-2-43-16-58-31-70-70-68-132 5-169 32-16 61-24 86-23zm-736 4c4 0 7 2 8 5 2 6 14 8 28 5 15-4 24-2 24 5 0 6-5 11-11 11-5 0-8 4-5 9 8 12-3 41-15 41-4 0-14-10-20-22-7-13-19-28-27-34-13-9-12-12 4-18 5-2 11-3 14-2zm-129 6c5 1 9 5 9 10 0 6-2 10-4 10-3 0-8-4-11-10-3-5-1-10 4-10h2zm-613-7c51 1 112 84 98 141-4 16-20 29-46 40-55 22-65 20-101-12-24-22-31-36-31-66 0-45 27-87 65-100l15-3zm733 80c5 0 9 1 9 4 0 5-9 16-20 26-23 19-26 37-7 37 8 0 7 4-3 10a82 82 0 0 1-67 3c-19-7-16-37 5-55 15-13 63-26 83-25zm-1976-42c20 1 35 9 50 24 21 20 25 34 25 80 0 48-3 57-22 64-52 19-65 20-104 2-44-20-54-35-54-82 0-43 15-65 51-78 21-7 39-11 54-10zm5329 121c41 3 86 36 86 78 0 9-64 31-85 29-5 0-20-4-32-9a51 51 0 0 1-18-80c12-14 30-19 49-18zm-5496 169c12 0 25 5 32 14 10 12 9 20-4 40-17 25-21 27-44 18-22-9-35-43-21-59 8-10 22-14 37-13zm697 59c24 0 48 45 36 68-10 19-55 35-66 24-19-19 5-92 30-92zm-179 30c41 3 66 19 98 57 24 28 26 35 15 55-23 45-75 80-136 91-23 5-40 0-63-16-18-12-39-33-47-48-14-23-13-29 7-76 19-45 26-51 58-57 28-4 49-6 68-6zm-211 32c4 0 8 2 12 4 11 7 17 21 15 35l-6 49-4 41c-3 27-30 30-47 6-32-45-7-137 30-135zm-111 18c21 2 17 23-7 28-10 2-17-3-17-12 0-10 9-16 21-16h3zm1663 67c23 2 43 24 43 62 0 40-15 60-40 54-8-2-25-18-37-35-16-23-20-36-12-49 12-24 30-34 46-32zm2207 67c4 0 6 4 6 10 0 9-4 16-10 16-5 0-10-4-10-9 0-6 5-13 10-16l4-1zm-6693-11 30 6c28 9 40 19 48 43 19 54 14 77-21 98-40 24-57 25-84 2-35-28-44-55-33-95 10-37 29-55 60-54zm2922 92c14 1 23 7 25 18 4 21-21 79-43 97-12 10-16 8-25-12-8-17-8-34 2-63 11-32 18-40 38-40h3zm1559 35c33 1 42 13 34 46-8 30-27 31-62 1-33-29-25-47 21-47h7zm4095 172c40 1 43 6 58 34 10 19 16 35 14 37-33 19-48 24-58 17-10-5-9-9 3-13 9-4 16-14 16-22 0-14-9-15-51-11-53 6-89-5-89-28 0-10 18-14 73-14h34zm-5874-91c10 0 18 4 24 12 6 6 16 50 23 96l13 84-32 29c-31 28-36 30-56 23l-37-9c-15-3-39-22-54-42l-27-35 23-42c38-70 89-116 123-116zm2878 71c20 1 27 12 9 23-5 3-7 12-3 20 6 17-2 17-35 1-32-16-23-40 16-44h13zm344 12c10 1 20 4 30 10 28 19 29 20 15 45-15 29-36 31-59 7-12-12-21-30-21-38 0-16 16-25 35-24zm-263 126c13 1 27 4 38 10 24 13 62 79 56 96-9 23-34 16-53-16-12-21-25-30-44-30-31 0-54-23-45-45 4-11 25-16 48-15zm467 121c76 1 167 55 204 130 21 45 12 67-37 80l-64 20c-40 16-125 10-158-10-31-19-64-82-64-122 0-28 28-68 61-85 17-9 37-13 58-13zm-3251-31c49 3 77 106 37 136-22 16-43 17-68 3-17-10-47-59-47-79 0-19 52-60 76-60h2zm1126 101c10 0 22 7 36 19 20 17 22 25 14 48-10 30-50 42-72 20-15-15-16-43-2-69 7-12 15-18 24-18zm3557 176 89 94c49 52 90 99 90 106s-10 23-22 37c-21 23-31 26-138 31-108 5-118 4-162-19-26-13-59-33-74-45-18-14-34-19-51-15-27 7-65-20-57-41 3-7 18-15 33-18 22-5 32-16 45-50 21-56 46-68 159-75zm-11914-257c26 0 145 99 173 146 20 32 21 35 4 69-9 20-35 51-57 68l-77 65c-49 42-116 45-173 7-57-39-80-93-75-179 6-106 18-124 108-152 41-13 85-24 97-24zm11290 290c27 2 50 27 55 60 3 22-1 25-34 28-27 2-41-2-57-19-37-40-23-69 33-69h3zm-1367 53 3 1 30 12c19 7 22 26 7 54-8 15-15 18-34 10-27-10-36-5-36 20 0 9-6 24-12 33-12 14-16 14-40 1-34-18-36-46-8-91 20-34 63-46 73-20 3 7 6 4 6-6 1-10 5-15 11-14zm2253 70 21 3c52 8 56 11 56 36 0 49-67 62-115 22l-30-25 24-20c15-12 26-17 44-16zm-12582-263c5 0 9 6 9 14s-4 18-10 21c-5 3-10-3-10-14 0-12 5-21 10-21h1zm10421 290c11 1 18 6 18 10 0 6-6 10-14 10s-18-4-21-10c-3-5 3-10 14-10h3zm601 90c19 1 57 36 57 54 0 11-9 16-27 15-17-1-21-3-10-6 24-6 21-18-8-31-26-12-34-32-12-32zm-425 42c43 3 84 29 140 84 47 46 67 73 78 109 23 78 20 91-28 113-53 25-118 35-138 22-8-5-30-10-48-10-45 0-109-35-131-71-31-50-45-116-35-156 7-30 18-41 64-64 37-19 68-28 98-27zm1458 404c9 1 21 4 40 10 60 18 84 39 84 76 0 32-4 34-70 41-33 4-53 0-77-15-42-25-47-77-9-101 12-8 20-11 32-11zm1986 69c8 0 16 4 26 9 15 9 35 18 45 22 9 3 17 12 17 18 0 39-72 49-108 16-27-26-28-46-2-60 8-4 15-6 22-5zm-3439 60c29 3 73 33 86 63 14 30-2 62-27 55-21-5-52 20-52 43 0 9 4 24 10 34 7 13 5 24-8 39-25 31-78 34-134 9-26-12-50-28-54-37-3-9-8-46-10-83-3-58-1-69 15-77 10-6 20-8 23-6l40 20 37 15 20-34c12-19 31-36 43-40l11-1zm3967 198c41 3 77 50 44 74-26 19-58 16-78-6-21-23-14-57 13-66 7-2 14-3 21-2z" transform="matrix(-.0143 -.0003 -.0003 .0143 521 748)"/><use href="#fondo-e" transform="rotate(179 559 562) scale(1.0737)"/></g></svg>