<svg xmlns="http://www.w3.org/2000/svg" width="512" height="512" viewBox="-16 -16 544 544"><path fill="var(--bg-color,#fff)" paint-order="stroke fill" stroke="var(--main,#000)" stroke-width="32" d="M224 0c-41 0-52 58-15 77 15 7 34 4 44-8 25-30 9-69-29-69Zm96 54c-34 5-41 63-9 71 10 2-4 21-21 26-33 10-38 21-33 67 1 15 10 54 13 60 3 5 0 8-13 13-51 20-81 43-123 96-30 40-66 78-87 124l45-1c10-23 27-41 44-60 25-27 28-31 45-56 20-36 43-36 77-48l30-9c50-14 61-44 29-75-27-27-23-45 12-63 15-8 21-8 38-9 64-4 74-11 92-68 8-24 7-23 18-26 15-5 24-16 16-20-14-7-29-6-38 4-18 17-20 68-45 75-18 5-61 5-70 0-3-1-3-2-1-15 4-15 4-15 11-23 29-31 4-68-30-63zm-175 9-14 2c-29 9-59 19-86 34-4 57 49 87 49 100 0 15 18 27 26 17 7-8 5-19-6-37-12-19-28-55-26-57 2-1 41-13 42-12-6 9-10 43 1 64 12 21 10 50-6 60-18 11-14 46 10 82 14 23 16 24 17 19 10-14 24-24 38-34-6-7-32-46-24-48 2 0 25 23 33 33 9 11 9 9 10-25 0-44 4-58 26-98 6-12 9-16 18-7 5-13 20-16 29-19 11-4 11-4-3-13-17-12-32-18-48-23-22-5-29-8-45-19-17-13-29-19-41-19Zm226 42c-5 14-3 22 8 28 15 7 24-1 13-13-14-15-11-29-17-29l-4 14zm-49 112c-11 7-11 22-2 28 7 4 13 3 20-3 19-17 2-37-18-25zm5 122c-4 2-18 9-45 17 15 40 24 59 57 82 29 19 72 53 77 71l41 3c-13-49-67-89-101-110-22-13-19-42-29-63Zm-95 37c-8-3-28 17-36 33l60 102 56 1c-5-21-80-136-80-136Z"/></svg>