<svg xmlns="http://www.w3.org/2000/svg" width="512" height="512" viewBox="-16 -16 544 544"><path fill="var(--bg-color,#fff)" paint-order="stroke fill" stroke="var(--main,#000)" stroke-width="32" d="M91 24h-1c-12 1-23 10-27 24-7 28-7 28-14 30-3 2-8 3-10 3-9 0-5 11 6 15 19 8 32-1 41-28 5-12 11-18 21-22 10-3 11-6 4-13-6-6-13-9-20-9Zm218 10c5 15 21 18 17 29-12 25 6 60 34 67 30 9 60-15 60-48 1-29-23-47-47-48-9-1-35 8-64 0zm163 8c-12 1-22 13-17 30l9 39c0 3-47 21-99 36-36 10-43 12-45 22s-6 33-8 28c-5-12 2-44 3-60 1-14-22-19-30-8-7 8-11 24-20 71-6 43 48 27 72 19 1-8 2-27 5-21 2 4 1 28 0 122l6-5c22-23 56-41 48-25-2 4-28 29-48 47-28 25-26 22-58 76-25 44-27 48-27 55 0 8 6 16 16 19 4 2 18 0 22-2 7-4 8-5 47-65 15-24 24-34 58-68 15-14 31-28 40-47V173c63-20 76-32 60-78l-11-34c-4-14-14-20-23-19Zm-329 6c-18 1-36 10-45 29-11 24 3 58 27 67 40 16 81-28 63-68-9-18-27-28-45-28ZM15 68h-2c-22 7-11 32-5 53 9 30 26 50 53 56 10 2 12-1 16-28 1-11-26 12-45-38-5-15-7-42-17-43Zm255 68c-17 8-56 33-76 33-1 9-2 18-7 32 10 4 67-28 74-33 2-10 5-24 9-32zM93 147c-9-1-21 26-4 55 14 25 8 43-8 64-14 17-43 37-65 44-9 3-9 3-6 22 7 37 30 41 53 7 29-39 31-34 6 12-13 24-6 41 17 41 18 0 21-4 28-37 9-51 15-47 9 6-3 28-2 32 11 38 12 5 25 3 36-8 6-5 5-12-1-33-14-46-8-44 11 2 10 23 10 24 16 27 12 6 26 3 33-8 8-11 7-13-5-28l-26-33c0-5 8 2 38 30 17 16 36 5 39-21 1-13 1-13-14-17-58-12-99-62-85-103 11-32 11-38 2-43-5-3-11-5-19 2-36 26-47-18-66-19zm308 236c-11 10-14 19-25 32-7 8-7 7 0 17l19 24c15 21 19 25 26 26 17 1 53 1 38-28l-54-68zm-221 24c-3 0-15 9-22 11-14 2 18 27 29 47 5 9 8 13 14 16 15 8 18-31 3-40-11-8-18-34-24-34zm-66 3c-7 0-9 23-21 34-12 12-13 34-2 38 10 3 43-46 48-56-8-4-15-15-25-16z"/></svg>