<svg xmlns="http://www.w3.org/2000/svg" width="512" height="512" viewBox="-16 -16 544 544"><path fill="var(--bg-color,#fff)" paint-order="stroke fill" stroke="var(--main,#000)" stroke-width="32" d="M260 23c-10 22 5 53 27 57 28 5 57-36 43-62-14-25-56-24-70 5zm113-13c-8 3-14 12-21 28-27 68-79 84-142 88-4 0-25 1-30-1-4-1-1-16 4-19 40-10 45-49 20-65-29-19-63 6-54 37 2 9 5 11 6 18 1 12-8 21-18 22-49 4-60-23-62-57-2-36 0-50-26-51-7 0-23 0-23 10 0 7 21 9 30 10l1 3c1 26-8 59 8 83 11 15 29 23 45 32l1 23c15-1 27 9 31 22 6 22-7 34-17 39-6 8-9 24-7 26 29 2 41 11 63 28-7-38-3-53 11-63-21-7-20-24-6-44 10-15 11-23 15-24l21-3c37-4 126-24 142-101 3-15 8-6 16-7 12-2 23-27 11-33-8-4-14-4-19-1ZM121 48c0 11-2 14-7 14-12 0-13 10-2 14 13 6 22-2 27-21 3-10 12-22 18-22 3 0 2-5-2-8-13-11-34 1-34 23zm293-24c-3 1-2 4-12 18-8 12-9 14-4 17 10 6 14 13 9 13-19 4-34 9-45 26-7 10-16 19-24 28 5 35 13 68 22 102-9 16-9 18-25 4l-11-97c-35 20-75 30-113 37-3 12-25 32-9 32 33 0 79-33 86-35l33 138c1 2 56-52 56-37 0 10-7 18-46 51-37 32-40 36-63 70-24 36-24 35-16 43 15 13 19 17 22 25 3 11-2 15 40-41 16-21 56-61 89-89 19-17 28-29 26-47-1-6-6-12 3-11l-31-147c90-23 101-55 13-100ZM112 186c-15 0-23 21-7 31 10 6 25-2 25-14 0-16-16-17-18-17zm117 42c-30-1-37 14-30 50 3 17 59-15 59-10 0 1-7 14-14 37-6 19-7 21-15 23-11 3-15 33-7 44 6 8 8 6 24-21l18-29c38-60 39-81 4-89-16-3-29-5-39-5zm-109 40c-15 0 5 48 37 89s77 127 95 147c12 14 20 2 11-16-5-8-4-17-4-26l-22-22c-12-32-27-64-41-96-21-49-23-51-44-64-11-6-25-12-32-12zm274 87-17 18c-24 24-35 38-34 42 6 12 76 69 70 85-1 3 69 4 71 2 11-11-94-102-92-113l2-34zM208 470c-7 11-16 22-20 35 0 4 39 9 40 6 0 0-5-16-20-41z"/></svg>