<svg xmlns="http://www.w3.org/2000/svg" width="512" height="512" viewBox="-16 -16 544 544"><path fill="var(--bg-color,#fff)" paint-order="stroke fill" stroke="var(--main,#000)" stroke-width="32" d="M298 0c-6 0-13 2-18 7-17 15-11 14-11 72-1 25-61 51-65 50-10-2-15-20-7-23 33-10 24-63-11-66s-50 32-28 62c6 8 10 16 12 24 1 6 1 6-16 8-14 2-27 6-46 13-30 12-38 24-66 34-16 6-22 10-26 17-8 16 2 14 41-6 58-29 85-35 103-26 52 27 36 62-7 81-37 16-88 11-111-25l-4-7-3 7c-12 36-3 65 23 78 13 6 13 5 14 25 2 28 9 35 38 40 5 1 7 4 7 13 0 16 14 30 29 30 5 0 5 0 5-5 0-10 10-37 17-44 6-6 7-3 3 16-4 16-6 27-7 47-2 24-3 26-11 33-6 6-8 8-9 15-4 15-2 21 4 13 10-14 8 18 13 25 6 7 10 4 11-7l5-42c4-25 21-82 36-116 20-46 23-64 23-112 0-33 0-38 3-49 3-14 3-21 0-29l-2-5c31-23 58-43 47-103-5-25-5-24 9-26 10-2 18-11 13-16-2-2-5-3-8-3zm63 36c-11 0-23 6-30 17-12 19 0 47 22 53 27 8 54-21 44-47-6-16-21-24-36-23zm58 79c-8 0-15 0-30 7l-16 6c-1 32 1 65 4 97-12 14-12 16-26-1l6-95-4-1c-23-5-31-3-67 16l-26 14-4 31c-3 22-3 22 30 7l17-8c0-5-2-12 3-15 3-2 3-2 9 15 15 42 18 55 19 85v22c34-33 52-35 53-32 0 1-20 22-46 47-45 45-47 47-54 60-23 47-59 93-81 141 0 2 64 0 65-3 3-10 37-71 56-100 34-50 102-80 96-140-2-6 1-15-6-18-20-9-20-55 0-55 7-9 4-25 2-36 14 4 26 10 35 13 6 2-13 30-21 31-17 3-24 23-11 33 20 15 76-36 76-70 0-15-6-21-34-36-20-10-33-15-45-15zm-252 73c-18 1-22 25-9 32 11 6 23-1 23-15 0-10-7-17-14-17zm221 171c-4 0-35 42-44 57-2 5 10 18 65 73-5 6-14 13-16 21l71 2c3-45 4-35-27-64-18-18-35-38-52-58 0-10 4-20 3-31z"/></svg>