<svg xmlns="http://www.w3.org/2000/svg" width="1024" height="684" viewBox="0 0 1024 684"><path fill="var(--main)" d="M186.5.6c-3.5 0-6.6.2-7.2.7-.6.6-.8 3.3-.8 7.8 0 5.6.2 7.4 1.2 8.9.7 1 108.1 108.7 238.5 239.2a90169 90169 0 0 1 244 245c4.1 4.2 7.3 7.3 8 7 .8-.1 1-1.3 1.2-6l.2-6 2.2-.4c1-.2 5.7-.4 10.2-.4 6.4 0 8.2-.2 8.2-1.1 0-.4-15.3-16-34.1-34.4a841.7 841.7 0 0 1-33.8-34.3 16 16 0 0 1 4.8-3.1c4.2-2 9.1-6.1 12.3-10.4.8-1 2-1.5 3.6-1.5 3.6 0 4.4.6 6.7 5 1.2 2.3 3.3 5 4.7 6.1a40 40 0 0 0 14.4 6.9c3.2.7 3.8.6 4.8-.4s1-1.1-.2-2a6 6 0 0 0-3-1.2c-2.3 0-9-2.5-11.6-4.5a16.3 16.3 0 0 1-6.8-8.5c-.6-1.9-1.5-3.6-2-4-.4-.2-2.6-.6-4.9-.8-3.7-.3-4-.5-4.3-2-.3-1.6-.2-1.6 3.7-1 3.2.3 4 .1 5.2-.8 2.5-2.4 1.3-7-3-11.1a27.2 27.2 0 0 0-10.6-5.8c-.5 0-1.9-.5-2.8-1.3-1.3-.8-4.3-1.5-8.6-2-12-1.4-19.8-4.3-24.5-8.8-2.4-2.5-5-7.5-5-9.9 0-2 4-6.1 7-7.4 2.1-.8 2.7-1.3 2.5-2.5a2.1 2.1 0 0 0-1.5-1.7c-.9 0-2-.6-2.5-1a31 31 0 0 0-8.2-1.8c-13.1-1.6-21.8-4.8-27-10.1-5-5-4.2-10 2.3-14.4 2.6-1.7 4-3.2 4-4 0-1.2-.3-1.3-9.4-.8-9.4.4-13.3-.2-13.3-1.8 0-.9 4.5-3.8 7.9-5 3.4-1 4.8-2.5 3.6-3.8-1-1.1-2.8-.7-8.4 1.8-6.5 3-8.4 6-6 9.2 1.8 2.2 4.1 3.1 9.2 3.6 2.2.3 4.2.7 4.3 1.1.2.3 0 2.1-.5 3.9-1.3 4.6-.4 8.3 3 12.1a51.9 51.9 0 0 0 27.7 11.8l5.5 1 1.9.2-2.4 2.7c-2.8 3.2-3.5 5.1-2.8 9.2 1.6 10.3 14.9 18.4 33.4 20 2.8.3 6.3 1.1 7.5 1.8l6.4 3a13 13 0 0 1 5.7 4.3c3.4 5 2 5.3-5.7 2-3.8-1.9-5.3-2.2-6-1.8-.8.7-.7 1.4.7 4 2.1 3.8 2.2 6.7.5 7.3l-4.7.8c-4.2.5-12 2.1-16.5 3.2-2 .6-4 .8-4.6.6-1-.4-226.1-224.8-348.6-347.9-59-59.2-63-63.1-66-63.9a47 47 0 0 0-9.6-.8zm663 0c-6.5 0-7.9.1-9.9 1.4-3.5 2.1-241.2 240.6-242.7 243.6-6.3 11.1 7.5 23 17 16.6L845.2 33.7c.8.2 1 186.5 1 186.5 0 102.4 0 217.7.2 230 0 4.9 11.5 11 12.8 8.2 0 0 .4-104.4.4-229.3 0-224 0-227.2-1.3-228a40 40 0 0 0-8.9-.7zM269.7 25c-4.3 0-7.5 2-9.5 5.8-2.8 5.3-.8 11.3 5.2 15.7 6.8 5.3 16.3 7.5 29 6.7 13-.7 24.7-3.6 45-11.4l9.7-3.5v1c0 .4-2 2.3-4.6 4.2-7 5.3-20.8 15.1-31.3 22.6-14.8 10.5-13 11.4 13.2 6.2 5.8-1 18.3-4 22.1-5.1a283.9 283.9 0 0 1 10-2.4l8.8-2.1c.5-.2 1.2 0 1.4.3.5.8.4.9-9.6 6.7-18.6 10.8-30.6 20.1-34.8 26.7-1.2 2.2-1.8 7.4-.9 8.3 1.3 1.1 2.7 0 3.1-2.7.5-3.8 1.3-5 6.2-9.6 5.5-5.2 29.2-20.7 42.7-28.1l8.4-4.7c3-1.5 5.6-3.3 5.8-3.8.6-1.8-.8-2.6-3.7-1.7a959.3 959.3 0 0 1-65.8 15.4c-4.8.8-4.2-.6 2.2-5.3l12.5-9a450.4 450.4 0 0 0 30.7-25c.2-.5 0-1.2-.4-1.8-.9-.8-2.2-.5-15.2 5-22.6 9.7-35 13.4-50.6 15.7-8.8 1.2-16.6.8-24.2-1.4-8.4-2.6-13.8-8.7-12.2-14.1 2-6.4 10-6.5 19.3-.4 4.2 3 6.4 3.5 6.4 1.5 0-1.3-.8-2-4.2-4.3a26.7 26.7 0 0 0-14.7-5.4zm77.7 74.4c-.9 0-1.8 0-2.5.2-7.5 1.4-12.3 5.3-12.3 9.6 0 3.4 2.2 4.5 9.4 4.5 3.5 0 6.6.3 7 .5.2.4.4 2 .3 3.7 0 1.8.4 4.8 1 6.7 2.2 6.7 11 13.3 21 15.7l5.7 1.4c1 .3 3 .6 4.2.6 4.4 0 4.2 1-1 4.5-7.5 5-6.8 5.9 4.5 6.2 6.2.2 8.4.5 10.1 1.5l2.2 1.3v7.5c0 7.3 0 7.8 2.1 11.1 3.6 5.9 12.5 10.7 23 12.3 1.5.3 2.8.6 2.8.9 0 .2-.8 1.3-2.1 2.7-1 1.2-2 2.8-2 3.3 0 2.7 5.6 6 10.6 6 1.2 0 2.8.2 3.6.9 1 .7 1.1 1 .4 2.6-1.3 3-1 7.8.7 11 3.4 6.1 13.8 11.4 27.4 14 8.2 1.5 13.8 1 13.8-1 0-1.1-3.7-2.2-6.8-2.2-4 0-12.4-1.6-17-3.2-10.5-3.4-16.3-9.2-15.1-15 .4-2.4 4.5-6.8 7-7.5 1.7-.5 2.7-3 1.6-4-.4-.6-2-.6-5.1 0-7.7 1.4-17 .7-17-1.4 0-1.1 3.2-3.3 7.2-4.9 3.2-1.1 4.2-1.9 4.2-2.8 0-1.1-.6-1.5-2-1.6a158 158 0 0 1-20-3.2c-4.8-1.5-10.6-5.6-12.3-8.9-1.5-2.9-1.7-6.2-.9-12.7.6-4.2.6-4.3-1.5-6.4-2-2-7.7-4.2-11.3-4.2-1 0-1.9 0-1.9-.4 0-.3 1.3-1.7 2.9-3 2.1-1.8 2.8-2.8 2.3-3.7-.4-1-1-1-2.2-.8-1.4.4-2.1 0-3.2-1-.6-.8-2.5-1.4-4.5-1.7-6.3-.8-13-2.5-17-4.3-11-5.2-14-12.6-9-22.5 2.4-5 1.8-5.9-3-4.6a62.7 62.7 0 0 1-12.8 3c-2.4 0-2.8 0-3-1.3-.1-1 .5-2.1 2.3-3.5 2.5-1.7 3.1-2 8.6-2 4.7 0 6.4.5 8.7 1.7 3.2 1.7 5 1.3 5-.7 0-2.4-8-5.1-14.1-4.9zm-169 99.4v478.7l1.5.6c2.6 1 10 .8 10.8-.3 1.6-2-.2-432.2 1.7-432.2a15 15 0 0 1 4.3 2.7c6.4 5.3 205.7 206 210 208.2 3.2 1.6 10 2 12.8.5a12 12 0 0 0 5.4-16.5c-1.8-3.8-234.7-236.6-239.5-239.8-1.7-1-4-2-5-2zm352.7 28.3h-3.5c-7 .7-13 3.8-15 7.8-1.9 3.4 1.4 4.3 3.8 1.1 3.2-4.5 10.1-6.2 19.4-5 25.4 3.7 57 24.8 57 38.3 0 4.6-3.3 7.5-11.3 10.1-3.5 1.2-19 1.1-23.5 0-11.1-3-25.7-9.6-25.7-11.7 0-.6 2.3-2.6 5.2-4.5 10.4-6.7 14.8-8.8 19.2-9 4.3-.3 5.4-1.3 3.2-3.3-1-.6-2.1-1.1-2.9-1.1-3.7 0-13.4 4.7-23.4 11.4a12.8 12.8 0 0 1-2.8 1.6c-.4 0-.7-1.4-.7-3 0-5.3-3.2-6.8-6.9-3.2-2.3 2.3-2.4 3.4-.4 7.5l1.4 3-1.6 1.3c-3.9 3.2-13 7.5-16.9 8-4 .6-4.9 1.1-3.8 2.8 1.5 2.4 9.6.4 17.4-4.1 1.8-1.1 3.4-1.6 3.5-1.4.2.3 0 3-.7 6-2.4 15.4.7 25.8 9.3 30.3 2.8 1.6 4 1.7 9.1 1.6 6.5-.3 10-1.5 10-3.7 0-1.6-2-1.7-7.4-.3-5.4 1.3-9 .4-12.5-3-3.7-3.5-5.3-8-5.3-15.2 0-5.7 1.8-16 3-17.3.5-.8 1.8-.5 7 2.5a68.6 68.6 0 0 0 35 9.6c10.3 0 17.7-2.1 22.3-6 6.7-5.8 5.5-14.2-3.2-23.5-14.5-15-40.6-27.2-58.3-27.6zm79.2 120.6h-.5c-3.2.1-4.1 1.8-1.6 3.1 2.4 1.2 6 1 6.5-.3.6-1.6-1.5-2.9-4.3-2.9zm19.5 65.8c3.5-.3 4 0 4.3 1.1 0 1.7-4.7 5.2-9.7 6.9-1.8.6-3.5 1-4 1-.3 0-1.9-1.1-3.5-2.6-2.5-2.3-2.9-3-2-3.5 1.6-1 10.4-2.8 15-3zM918 511l-91.7.1c-112.7.2-138.5.4-139.4 1.2-1 .7-1 2.1-.9 7.4l.3 6.4 77.9 77.5c42.6 42.7 78.7 78.1 79.8 78.8a10.4 10.4 0 0 0 8.7.5c.8-.4 36.2-35.5 78.8-77.9 42.5-42.5 80.7-80.6 85-84.6 4.2-4 7.5-7.5 7.5-8 0-1-30-1.3-106-1.4zm46 5.6c20.7 0 28 .3 28 .7.2.4-29.8 31.3-67.6 69A2995.3 2995.3 0 0 1 855 655c-.8.3-2.4-.2-3.5-.8a10845 10845 0 0 1-135.7-136.6 23598.1 23598.1 0 0 1 248.2-1z"/></svg>