<svg xmlns="http://www.w3.org/2000/svg" viewBox="0 0 1024 828" width="1024" height="828"><path fill="var(--main)" d="M9.8 0C5.5 0 1.7.3 1 1c-.7.7-1 4-1 9.4 0 6.7.3 8.9 1.5 10.7.8 1.2 130.8 131.7 288.8 289.8 158 158 291 291.5 295.5 296.4 4.8 5.3 8.8 9 9.5 8.8 1-.3 1.4-1.8 1.6-7.5l.2-7.2 2.6-.5c1.4-.3 7-.5 12.4-.5 7.9 0 10-.3 10-1.2 0-.6-18.6-19.4-41.3-41.8a1019.2 1019.2 0 0 1-41-41.6c.1-.5 2.7-2.1 5.8-3.6 5-2.5 11.1-7.5 15-12.5 1-1.3 2.3-1.9 4.3-1.9 4.4 0 5.3.7 8.1 6 1.5 2.8 4 6.1 5.6 7.4 3.9 3.2 11.8 7 17.5 8.3 4 1 4.6.8 5.8-.3 1.3-1.4 1.3-1.5-.2-2.7a7 7 0 0 0-3.6-1.2c-2.7 0-11-3.2-14.2-5.6-4.4-3.3-6.4-5.9-8-10.2-.9-2.3-2-4.4-2.5-4.8-.5-.4-3.2-.8-6-1-4.5-.4-5-.6-5.2-2.5-.3-1.9-.3-1.9 4.4-1.3 3.9.4 5 .3 6.4-1 3-2.7 1.5-8.4-3.6-13.3a33 33 0 0 0-12.8-7c-.7 0-2.4-.6-3.6-1.5a29 29 0 0 0-10.3-2.5c-14.6-1.7-24-5.1-29.6-10.7-3-3-6.1-9.1-6.1-12 0-2.4 4.8-7.4 8.5-8.9 2.5-1 3.2-1.6 3-3-.2-1-1-1.9-2-2-.8-.2-2.2-.9-2.8-1.4-.7-.6-5.2-1.5-10-2-15.9-2-26.3-5.7-32.6-12.2-6-6-5-12 2.8-17.4 3-2 4.7-3.8 4.7-4.8 0-1.6-.4-1.7-11.4-1.1-11.3.5-16-.2-16-2.2 0-1 5.4-4.5 9.5-5.9 4.2-1.4 5.8-3 4.4-4.7-1.1-1.4-3.4-.9-10.2 2.2-7.7 3.6-10.1 7.3-7.2 11 2 2.7 5 3.8 11.1 4.5 2.7.3 5 .8 5.3 1.3.2.4 0 2.5-.7 4.7-1.6 5.7-.5 10 3.7 14.8 5.5 6.2 20.4 12.5 33.6 14.2l6.5 1 2.4.4-3 3.3c-3.4 3.8-4.2 6.2-3.4 11.2 1.9 12.5 18 22.2 40.5 24.2 3.4.3 7.6 1.3 9.2 2.1 1.5.9 5 2.5 7.7 3.7 3.2 1.5 5.5 3.2 6.9 5.2 4 6 2.4 6.6-6.9 2.3-4.7-2.2-6.6-2.7-7.4-2-1 .7-.8 1.7 1 4.7 2.4 4.7 2.7 8.2.6 8.9a197.6 197.6 0 0 0-25.7 5 14 14 0 0 1-5.6.6c-1.4-.5-273.8-272.3-422.1-421.3C30 6.7 25.1 1.9 21.5 1A56 56 0 0 0 9.8 0zm802.6 0c-7.7 0-9.4.2-11.9 1.8a23891 23891 0 0 0-293.8 295c-7.6 13.4 9 27.9 20.5 20l280-276.6c1 .3 1.2 225.9 1.2 225.9 0 124 .1 263.6.4 278.6 0 5.8 13.8 13.2 15.4 9.8 0 0 .5-126.4.5-277.7 0-271.1 0-275-1.6-276a48 48 0 0 0-10.7-.8zM110.6 29.7c-5.2.1-9.2 2.5-11.5 7-3.4 6.4-1 13.7 6.2 19 8.4 6.4 19.9 9 35.2 8.2 15.8-.9 29.9-4.4 54.5-13.8l11.6-4.2.2 1c0 .5-2.6 2.9-5.7 5.2a2426 2426 0 0 1-38 27.5c-17.8 12.6-15.5 13.7 16.2 7.5 6.9-1.5 22-5 26.7-6.3L218 78c5.2-1.2 10-2.3 10.6-2.6.7-.3 1.5-.1 1.8.4.6 1 .5 1-11.6 8-22.5 13.2-37.1 24.4-42.2 32.5-1.5 2.4-2.2 8.8-1 10 1.5 1.4 3.2-.1 3.7-3.3.6-4.6 1.6-6.2 7.5-11.7 6.6-6.1 35.3-25 51.6-34l10.2-5.6c3.6-1.9 6.8-4 7-4.7.9-2.2-1-3.1-4.5-2.1-29.9 8-69 17.3-79.6 18.8-5.8.9-5.2-.8 2.5-6.4l15.2-11A507 507 0 0 0 226.6 36c.2-.7 0-1.6-.5-2.2-1.1-1-2.5-.6-18.5 6.1-27.3 11.6-42.3 16.2-61.2 19a68 68 0 0 1-29.2-1.8c-10.3-3-16.7-10.5-14.8-17 2.3-7.8 12.2-8 23.2-.5 5.2 3.6 7.8 4.2 7.8 1.8 0-1.6-.9-2.6-5-5.3a32.4 32.4 0 0 0-17.8-6.5zm94 90.1-3 .3c-9 1.7-14.8 6.3-14.8 11.7 0 4.1 2.6 5.4 11.3 5.4 4.3 0 8 .3 8.4.6.3.4.6 2.4.4 4.5-.1 2 .5 5.7 1.2 8 2.8 8.2 13.5 16.2 25.4 19l7 1.7c1.3.4 3.6.8 5 .8 5.4 0 5.2 1.3-1 5.4-9.2 6-8.4 7 5.3 7.5 7.5.3 10.2.7 12.3 1.8l2.7 1.6v9.2c0 8.8 0 9.4 2.5 13.3 4.4 7.2 15.1 13 27.7 15 2 .3 3.5.7 3.5 1 0 .2-1 1.7-2.5 3.3-1.3 1.5-2.5 3.3-2.5 4 0 3.3 6.9 7 13 7 1.4 0 3.3.6 4.1 1.3 1.4 1 1.5 1.4.6 3.3-1.6 3.5-1.2 9.4.8 13 4.3 7.7 16.7 14 33.2 17.2 10 1.8 16.7 1.2 16.7-1.4 0-1.1-4.4-2.5-8.2-2.5-4.7 0-15-1.9-20.6-3.8-12.7-4.2-19.6-11.2-18.3-18.3.5-2.9 5.5-8.1 8.6-9 2-.7 3.2-3.6 1.9-5-.6-.5-2.4-.5-6.2.1-9.3 1.8-20.6.9-20.6-1.6 0-1.5 3.9-4 8.7-6 3.8-1.4 5-2.3 5-3.5 0-1.2-.6-1.7-2.4-1.9-6.5-.5-20.1-2.7-24.1-4-6-1.7-12.9-6.6-15-10.6-1.8-3.5-2-7.5-1-15.3.6-5 .6-5.3-1.8-7.7-2.5-2.5-9.5-5-13.7-5-1.3 0-2.4-.3-2.4-.7 0-.3 1.6-2 3.5-3.6 2.6-2.2 3.4-3.4 3-4.5-.5-1.1-1.2-1.4-2.8-1-1.7.5-2.7.2-3.8-1-.9-1-3-1.9-5.5-2.2-7.6-1-15.8-3-20.7-5.3-13.1-6.2-16.7-15.2-10.8-27.2 3-6 2.2-7.1-3.6-5.5a76 76 0 0 1-15.6 3.6c-2.8.2-3.3 0-3.5-1.6-.2-1.3.6-2.5 2.8-4.2 3-2.2 3.7-2.3 10.3-2.3 5.7 0 7.9.4 10.6 1.9 3.9 2 6.1 1.7 6.1-.9 0-3-9.8-6-17.2-5.9zM0 240.2v579.6l2 .7c3 1.2 11.8 1 13-.3 1.9-2.4-.4-523.3 2-523.3.7 0 3 1.5 5.3 3.2 7.6 6.5 249 249.4 254.1 252 3.9 2 12.2 2.5 15.5.8 7.9-4.1 10.5-12.3 6.6-20.1-2.2-4.5-284.2-286.5-290-290.3-2.2-1.3-5-2.3-6.2-2.3Zm427.2 34.3a43 43 0 0 0-4.2.1c-8.4.7-15.8 4.4-18.3 9.3-2.1 4.2 1.9 5.2 4.7 1.3 3.9-5.4 12.2-7.4 23.5-5.9 30.8 4.4 69 30 69 46.2 0 5.5-4 9.2-13.7 12.4a95 95 0 0 1-28.3-.1c-13.6-3.6-31.3-11.6-31.3-14.2 0-.7 2.8-3.1 6.4-5.4 12.5-8.2 17.9-10.7 23.1-11 5.3-.3 6.6-1.6 4-3.8-1.1-.8-2.6-1.5-3.5-1.5-4.6 0-16.2 5.7-28.3 13.8-1.6 1-3.2 2-3.5 2-.4 0-.7-1.7-.7-3.7 0-6.4-4-8.2-8.4-3.9-3 3-3 4.3-.6 9.1l1.8 3.8-2 1.5c-4.7 3.9-15.7 9.1-20.5 9.7-4.8.6-5.9 1.4-4.6 3.4 1.9 2.9 11.7.5 21.1-5 2.2-1.3 4.1-2 4.3-1.7.2.3 0 3.6-.8 7.2-3 18.7.8 31.2 11.2 36.7 3.4 1.9 4.8 2.1 11 1.9 8-.3 12.1-1.8 12.1-4.4 0-1.9-2.4-2-9-.4-6.4 1.6-10.8.5-15.2-3.6-4.3-4.2-6.2-9.8-6.2-18.4 0-6.8 2-19.4 3.4-21 .7-1 2.3-.4 8.7 3a82.9 82.9 0 0 0 42.4 11.7c12.4 0 21.4-2.5 26.9-7.3 8-7 6.6-17.2-4-28.3-17.6-18.3-49-33-70.5-33.5zm96 146h-.8c-3.8.2-4.9 2.3-1.9 3.8 3 1.4 7.3 1.2 8-.4.6-2-1.9-3.5-5.4-3.5zm23.6 79.6c4.2-.2 4.8 0 5 1.5.3 2-5.6 6.1-11.7 8.2a30 30 0 0 1-4.7 1.4c-.4 0-2.3-1.5-4.3-3.4-3-2.6-3.4-3.4-2.4-4a61 61 0 0 1 18-3.7zm348.8 118-111.2.1c-136.4.3-167.6.5-168.7 1.5-1 .8-1.2 2.5-1 8.9l.3 7.8 94.2 93.8c51.9 51.6 95.4 94.6 96.7 95.4 2.8 1.8 8 2.1 10.6.7 1-.5 43.8-43 95.3-94.4 51.5-51.5 97.8-97.5 103-102.4a86 86 0 0 0 9.2-9.6c0-1.2-36.4-1.7-128.4-1.8zm55.6 6.8c25.2.1 34 .3 34.1.8.2.5-36.3 37.8-82 83.7a3794.3 3794.3 0 0 1-84.2 83c-.9.2-2.8-.3-4-1-3-2-164.7-164.6-164.4-165.3a28577 28577 0 0 1 300.5-1.2z"/></svg>